<svg xmlns="http://www.w3.org/2000/svg" width="463" height="367" viewBox="0 0 463 367">
  <defs>
    <style>
      .cls-1 {
        fill: #fff;
        fill-rule: evenodd;
      }
    </style>
  </defs>
  <path id="모양_1" data-name="모양 1" class="cls-1" d="M0,39.055C1.673,31.329,4.035,23.909,9.043,17.57,17.963,6.282,29.58.1,43.954,0.09Q231.5-.045,419.048.067a44.014,44.014,0,0,1,43.841,43.673q0.166,108.411.006,216.823c-0.033,24.593-19.983,43.873-45.195,43.908q-71.08.1-142.16-.08c-3.966-.014-5.872,1.306-7.63,4.706-8.831,17.084-17.972,34.008-26.912,51.035-2.066,3.933-4.763,6.751-9.46,6.808-4.908.059-7.6-2.914-9.7-6.994-8.962-17.436-18.1-34.782-27.02-52.24-1.268-2.482-2.714-3.277-5.451-3.272q-72.02.127-144.036,0.045C23.617,304.454,5.988,290.6,1.1,269.948c-0.339-1.434-.731-2.856-1.1-4.284V39.055Zm387.1,80.921c-25.312-10.183-42.8-7.4-57.02,8.766-11.756,13.365-14.5,34.044-5.014,49.256,15.14,24.262,36.558,28.069,62.644,16.141-5.1,14.075-15.7,19.933-28.194,23.581v23.341a17.537,17.537,0,0,0,2.3.241,59.327,59.327,0,0,0,41.793-18.3c5.93-6.02,9.986-13.15,9.988-21.94q0.011-41.427-.075-82.854c0-1.447,0-2.894,0-4.428H387.1v6.192ZM78.72,192.75c24.405,11.955,43.643,9.66,58.35-6.656a43.474,43.474,0,0,0,4.377-52.161,42.735,42.735,0,0,0-28.47-19.669c-12.313-2.572-23.6.531-34.545,7.643V74.167H52.112V198.605h26.31c0.105-2.062.193-3.791,0.3-5.855m223.841-35.774a43.613,43.613,0,1,0-43.5,43.792,43.714,43.714,0,0,0,43.5-43.792M192.914,198.857a22.893,22.893,0,0,0,.247-2.331c0-27.24.134-54.481-.069-81.72-0.117-15.77-7.317-27.761-20.921-35.706a38.453,38.453,0,0,0-22.826-4.96c0,9.3,0,18.272.011,27.249a12.72,12.72,0,0,0,.231,1.742c12.347,2.4,16.979,8.12,16.979,20.774q0,35.424,0,70.85v4.1h26.348Zm177.5-58.705a19.349,19.349,0,1,1-19.8,19.177,19.476,19.476,0,0,1,19.8-19.177M117.3,159.52a19.352,19.352,0,1,1-19.368-19.638A19.372,19.372,0,0,1,117.3,159.52M258.94,178.7a19.407,19.407,0,1,1,19.43-19.519A19.412,19.412,0,0,1,258.94,178.7"/>
</svg>
