<?xml version="1.0" encoding="utf-8"?>
<!-- Generator: Adobe Illustrator 23.0.0, SVG Export Plug-In . SVG Version: 6.00 Build 0)  -->
<svg version="1.1" id="레이어_1" xmlns="http://www.w3.org/2000/svg" xmlns:xlink="http://www.w3.org/1999/xlink" x="0px"
	 y="0px" viewBox="0 0 134 30" style="enable-background:new 0 0 134 30;" xml:space="preserve">
<style type="text/css">
	.st0{fill:#FFFFFF;}
	.st1{fill:#0008CB;}
</style>
<g>
	<path class="st0" d="M15,0C6.72,0,0,6.72,0,15s6.72,15,15,15h93.36c7.09,0,13.02-4.93,14.58-11.54L134,15l-11.06-3.46
		C121.38,4.93,115.45,0,108.36,0H15z"/>
	<path class="st1" d="M108.36,1c6.52,0,12.11,4.43,13.61,10.77l0.13,0.55l0.54,0.17l8,2.5l-8,2.5l-0.54,0.17l-0.13,0.55
		c-1.5,6.34-7.1,10.77-13.61,10.77H15C7.28,29,1,22.72,1,15S7.28,1,15,1H108.36 M108.36,0H15C6.72,0,0,6.72,0,15s6.72,15,15,15
		h93.36c7.09,0,13.02-4.93,14.58-11.54L134,15l-11.06-3.46C121.38,4.93,115.45,0,108.36,0L108.36,0z"/>
</g>
<g>
	<path class="st1" d="M19.35,16.89c1.64-0.01,3.38-0.15,5.22-0.52l0.16,1.14c-2.05,0.4-3.93,0.54-5.76,0.54h-1.01v-7.92h1.38V16.89z
		 M28.77,14.81h-1.84v6.25h-1.38V8.94h1.38v4.72h1.84V14.81z"/>
	<path class="st1" d="M29.28,17.37c2.17,0,5.19-0.01,7.8-0.4l0.09,1.01c-2.67,0.51-5.57,0.54-7.72,0.54L29.28,17.37z M36.43,12.7
		c0,1.72-1.41,2.91-3.3,2.91c-1.89,0-3.29-1.19-3.29-2.91s1.4-2.91,3.29-2.91C35.02,9.79,36.43,10.98,36.43,12.7z M31.2,12.7
		c0,1.05,0.82,1.73,1.93,1.73c1.13,0,1.95-0.68,1.95-1.73c0-1.06-0.82-1.73-1.95-1.73C32.02,10.97,31.2,11.64,31.2,12.7z M39.2,8.93
		v12.15h-1.4V8.93H39.2z"/>
	<path class="st1" d="M51.49,15.74c-2.52,0.44-5.38,0.51-7.49,0.51l-0.15-1.13c0.72,0,1.56,0,2.42-0.03v-2.48h1.37v2.44
		c1.26-0.05,2.56-0.13,3.76-0.32L51.49,15.74z M49.03,13.99c0.24-1.3,0.28-2.25,0.3-3.01h-4.74V9.85h6.09v0.7
		c0,0.82,0,2.01-0.3,3.58L49.03,13.99z M47.07,19.7h6.84v1.13h-8.24v-3.6h1.4V19.7z M55.14,12.78v1.14h-1.61v4.12h-1.4v-9.1h1.4
		v3.84H55.14z"/>
	<path class="st1" d="M62.36,15.33c-1.4-0.46-2.43-1.38-2.97-2.6c-0.55,1.3-1.6,2.34-3.05,2.83l-0.67-1.09
		c1.91-0.64,2.99-2.24,2.99-3.89V9.41h1.41v1.17c0,1.6,1.09,3.09,2.95,3.68L62.36,15.33z M57.72,16.46h7.93v4.46h-7.93V16.46z
		 M59.07,19.81h5.22v-2.25h-5.22V19.81z M65.65,8.95v6.87h-1.38V8.95H65.65z"/>
	<path class="st1" d="M72.51,17.06c1.92-0.01,3.6-0.11,5.52-0.42l0.15,1.13c-2.08,0.36-3.89,0.43-6.03,0.43h-1.03v-4.8h4.23v-2.25
		h-4.25v-1.13h5.65v4.5h-4.23V17.06z M80.43,8.91v12.17h-1.4V8.91H80.43z"/>
	<path class="st1" d="M93.08,18.36v1.14H82.1v-1.14H93.08z M92.01,16c-1.97-0.4-3.68-1.66-4.47-3.33c-0.79,1.66-2.5,2.93-4.47,3.33
		l-0.59-1.14c2.39-0.44,4.33-2.31,4.33-4.23V9.72h1.46v0.91c0,1.93,1.95,3.8,4.33,4.23L92.01,16z"/>
	<path class="st1" d="M104.77,18.44v1.13H93.78v-1.13H104.77z M103.54,16.46h-8.4V9.92h8.31v1.11h-6.9v1.56h6.63v1.09h-6.63v1.66
		h6.99V16.46z"/>
</g>
</svg>
