<?xml version="1.0" encoding="utf-8"?>
<!-- Generator: Adobe Illustrator 23.0.0, SVG Export Plug-In . SVG Version: 6.00 Build 0)  -->
<svg version="1.1" id="레이어_1" xmlns="http://www.w3.org/2000/svg" xmlns:xlink="http://www.w3.org/1999/xlink" x="0px"
	 y="0px" viewBox="0 0 13 19" style="enable-background:new 0 0 13 19;" xml:space="preserve">
<style type="text/css">
	.st0{fill:#FFFFFF;}
</style>
<g>
	<path class="st0" d="M12.5,7.32c-0.13,0-0.26-0.05-0.36-0.16L6.5,1.23L0.86,7.16c-0.19,0.2-0.51,0.21-0.71,0.02
		c-0.2-0.19-0.21-0.51-0.02-0.71l6-6.32c0.19-0.2,0.54-0.2,0.72,0l6,6.32c0.19,0.2,0.18,0.52-0.02,0.71
		C12.75,7.27,12.62,7.32,12.5,7.32z"/>
	<path class="st0" d="M6.5,19C6.22,19,6,18.78,6,18.5v-18C6,0.22,6.22,0,6.5,0S7,0.22,7,0.5v18C7,18.78,6.78,19,6.5,19z"/>
</g>
</svg>
