<?xml version="1.0" encoding="utf-8"?>
<!-- Generator: Adobe Illustrator 23.0.0, SVG Export Plug-In . SVG Version: 6.00 Build 0)  -->
<svg version="1.1" id="레이어_1" xmlns="http://www.w3.org/2000/svg" xmlns:xlink="http://www.w3.org/1999/xlink" x="0px"
	 y="0px" viewBox="0 0 17 18" style="enable-background:new 0 0 17 18;" xml:space="preserve">
<style type="text/css">
	.st0{fill:#FFFFFF;}
</style>
<g>
	<path class="st0" d="M8.5,18.17c-0.1,0-0.19-0.02-0.28-0.06l-7.76-3.24C0.18,14.76,0,14.49,0,14.19V4.67
		c0-0.25,0.12-0.48,0.33-0.62C0.54,3.9,0.8,3.88,1.03,3.97l7.76,3.24C9.06,7.33,9.24,7.6,9.24,7.9v9.52c0,0.25-0.12,0.48-0.33,0.62
		C8.79,18.13,8.65,18.17,8.5,18.17z M1.49,13.69l6.27,2.62v-7.9L1.49,5.79V13.69z"/>
	<path class="st0" d="M8.5,8.65c-0.1,0-0.19-0.02-0.28-0.06L0.46,5.36C0.18,5.24,0,4.97,0,4.67s0.18-0.58,0.46-0.69l7.76-3.24
		c0.18-0.08,0.39-0.08,0.57,0l7.76,3.24C16.82,4.09,17,4.36,17,4.67s-0.18,0.58-0.46,0.69L8.78,8.6C8.69,8.64,8.6,8.65,8.5,8.65z
		 M2.69,4.67L8.5,7.09l5.81-2.43L8.5,2.24L2.69,4.67z"/>
	<path class="st0" d="M8.5,18.18c-0.15,0-0.29-0.04-0.41-0.13c-0.21-0.14-0.33-0.37-0.33-0.62V7.9c0-0.3,0.18-0.58,0.46-0.69
		l7.76-3.24c0.23-0.1,0.49-0.07,0.7,0.07C16.88,4.18,17,4.42,17,4.67v9.52c0,0.3-0.18,0.58-0.46,0.69l-7.76,3.24
		C8.69,18.16,8.6,18.18,8.5,18.18z M9.24,8.41v7.9l6.27-2.62v-7.9L9.24,8.41z M16.26,14.19L16.26,14.19L16.26,14.19z"/>
</g>
</svg>
