<?xml version="1.0" encoding="utf-8"?>
<!-- Generator: Adobe Illustrator 23.0.0, SVG Export Plug-In . SVG Version: 6.00 Build 0)  -->
<svg version="1.1" id="레이어_1" xmlns="http://www.w3.org/2000/svg" xmlns:xlink="http://www.w3.org/1999/xlink" x="0px"
	 y="0px" viewBox="0 0 72 62" style="enable-background:new 0 0 72 62;" xml:space="preserve">
<style type="text/css">
	.st0{fill:#0008CB;}
</style>
<path class="st0" d="M70.1,10.12l-5.32-5.33c-0.91-0.91-2.8-1.89-4.81-1.89h-0.01c-1.64,0-3.16,0.66-4.39,1.89L42.31,18.06
	L26.17,4.75c-0.38-0.31-0.92-0.3-1.29,0.02L0.34,26.18C0.13,26.37,0,26.64,0,26.93V61c0,0.55,0.45,1,1,1h50.55c0.55,0,1-0.45,1-1
	V36.89L70.1,19.33C72.63,16.79,72.63,12.66,70.1,10.12z M50.55,60H2V27.39L25.55,6.83l15.34,12.65L28.61,31.77
	c-0.36,0.36-0.62,0.81-0.75,1.28L23.8,47.51c-0.28,1,0,2.09,0.74,2.86c0.59,0.6,1.49,0.82,2.22,0.82c0.24,0,0.46-0.02,0.65-0.07
	l14.44-4.07c0.49-0.13,0.92-0.38,1.29-0.75l7.4-7.41V60z M30.69,32.52L42.4,44.23l-0.66,0.66c-0.12,0.12-0.25,0.19-0.41,0.24
	l-14.41,4.06c-0.22,0.05-0.79-0.05-0.95-0.21c-0.24-0.25-0.34-0.61-0.25-0.93l4.07-14.48c0.04-0.14,0.12-0.27,0.23-0.39L30.69,32.52
	z M43.81,42.82L32.11,31.1l18.38-18.4l11.7,11.71L43.81,42.82z M68.68,17.91L63.6,23L51.9,11.29l5.09-5.09
	c0.86-0.86,1.86-1.3,2.98-1.3h0c1.52,0,2.89,0.8,3.39,1.3l5.32,5.33C70.44,13.29,70.44,16.16,68.68,17.91z"/>
</svg>
