<?xml version="1.0" encoding="utf-8"?>
<!-- Generator: Adobe Illustrator 23.0.0, SVG Export Plug-In . SVG Version: 6.00 Build 0)  -->
<svg version="1.1" id="레이어_1" xmlns="http://www.w3.org/2000/svg" xmlns:xlink="http://www.w3.org/1999/xlink" x="0px"
	 y="0px" viewBox="0 0 26 18" style="enable-background:new 0 0 26 18;" xml:space="preserve">
<style type="text/css">
	.st0{fill:#FFFFFF;}
</style>
<g>
	<path class="st0" d="M13.11,16.72c-0.07,0-0.15,0-0.22,0c-5.03,0-9.63-2.53-12.32-6.8L0,9l0.57-0.92c2.69-4.27,7.29-6.8,12.32-6.8
		c0.08,0,0.16,0,0.23,0c5.02,0,9.62,2.53,12.31,6.8L26,9l-0.57,0.91C22.74,14.18,18.14,16.71,13.11,16.72z M13,15.22L13,15.22
		c4.58,0.05,8.74-2.24,11.17-6.1L24.24,9l-0.08-0.13c-2.41-3.82-6.54-6.09-11.05-6.09c-0.07,0-0.14,0-0.21,0
		c-4.53,0-8.65,2.27-11.07,6.1L1.76,9l0.08,0.13C4.27,12.98,8.46,15.26,13,15.22L13,15.22z"/>
	<path class="st0" d="M13,16.71L13,16.71c-4.25,0-7.72-3.46-7.72-7.72S8.75,1.28,13,1.28c4.25,0,7.72,3.46,7.72,7.72
		C20.71,13.25,17.25,16.71,13,16.71z M13,2.78C9.57,2.78,6.78,5.57,6.78,9s2.79,6.22,6.22,6.22c3.43,0,6.22-2.8,6.22-6.22
		C19.22,5.57,16.43,2.78,13,2.78z"/>
	<path class="st0" d="M13,12.73c-2.06,0-3.73-1.67-3.73-3.73S10.94,5.27,13,5.27S16.73,6.94,16.73,9S15.06,12.73,13,12.73z M13,6.76
		c-1.23,0-2.24,1-2.24,2.24c0,1.23,1,2.24,2.24,2.24s2.24-1,2.24-2.24C15.24,7.77,14.23,6.76,13,6.76z"/>
</g>
</svg>
