<svg id="그룹_1" data-name="그룹 1" xmlns="http://www.w3.org/2000/svg" width="4789" height="1129" viewBox="0 0 4789 1129">
  <defs>
    <style>
      .cls-1 {
        fill: #f0eeea;
      }

      .cls-2 {
        font-size: 83.333px;
        text-anchor: middle;
        font-family: "Noto Sans Korean";
        font-weight: 500;
      }

      .cls-3 {
        font-size: 162.5px;
      }

      .cls-3, .cls-4 {
        fill: #0008cb;
        font-family: NanumSquare;
        font-weight: 800;
      }

      .cls-4 {
        font-size: 166.667px;
      }

      .cls-5 {
        fill: none;
        stroke: #0008cb;
        stroke-linecap: round;
        stroke-linejoin: round;
        stroke-width: 5px;
        fill-rule: evenodd;
      }
    </style>
  </defs>
  <circle id="타원_1" data-name="타원 1" class="cls-1" cx="567" cy="561" r="560"/>
  <circle id="타원_1_복사" data-name="타원 1 복사" class="cls-1" cx="1789" cy="561" r="560"/>
  <circle id="타원_1_복사_2" data-name="타원 1 복사 2" class="cls-1" cx="3004" cy="561" r="560"/>
  <circle id="타원_1_복사_3" data-name="타원 1 복사 3" class="cls-1" cx="4231" cy="561" r="560"/>
  <text id="스테이다다_STAY에서_정보확인" data-name="스테이다다 STAY에서 정보확인" class="cls-2" x="580.819" y="699.256"><tspan x="580.819">스테이다다 STAY에서</tspan><tspan x="580.819" dy="100">정보확인</tspan></text>
  <text id="_1" data-name="1" class="cls-3" x="516.187" y="470.195">1</text>
  <text id="_2" data-name="2" class="cls-3" x="1741.185" y="474.195">2</text>
  <text id="_3" data-name="3" class="cls-4" x="2957.184" y="476.194">3</text>
  <path id="모양_1" data-name="모양 1" class="cls-5" d="M966,585v-1h417v1H966Z"/>
  <path id="모양_2" data-name="모양 2" class="cls-5" d="M1324.71,543.409l0.58-.818,61,43-0.58.818Z"/>
  <path id="모양_1-2" data-name="모양 1" class="cls-5" d="M2186,585v-1h417v1H2186Z"/>
  <path id="모양_2-2" data-name="모양 2" class="cls-5" d="M2544.71,543.409l0.58-.818,61,43-0.58.818Z"/>
  <path id="모양_1-3" data-name="모양 1" class="cls-5" d="M3407,585v-1h417v1H3407Z"/>
  <path id="모양_2-3" data-name="모양 2" class="cls-5" d="M3765.71,543.409l0.58-.818,61,43-0.58.818Z"/>
  <text id="_4" data-name="4" class="cls-4" x="4184.188" y="476.194">4</text>
  <text id="입주가능일_확인_및_상담" data-name="입주가능일 확인 및 상담" class="cls-2" x="1793.821" y="699.256"><tspan x="1793.821">입주가능일</tspan><tspan x="1793.821" dy="100">확인 및 상담</tspan></text>
  <text id="가계약_진행" data-name="가계약 진행" class="cls-2" x="3005.821" y="699.256"><tspan x="3005.821">가계약 진행</tspan></text>
  <text id="오프라인_투어_및_계약_확정_" data-name="오프라인 투어 및 계약 확정 " class="cls-2" x="4233.821" y="699.256"><tspan x="4233.821">오프라인 투어</tspan><tspan x="4233.821" dy="100">및 계약 확정 </tspan></text>
</svg>
