<?xml version="1.0" encoding="utf-8"?>
<!-- Generator: Adobe Illustrator 23.0.0, SVG Export Plug-In . SVG Version: 6.00 Build 0)  -->
<svg version="1.1" id="레이어_1" xmlns="http://www.w3.org/2000/svg" xmlns:xlink="http://www.w3.org/1999/xlink" x="0px"
	 y="0px" viewBox="0 0 1440 310" style="enable-background:new 0 0 1440 310;" xml:space="preserve">
<style type="text/css">
	.st0{fill:#F0EEEA;}
	.st1{fill:#0008CB;}
</style>
<g>
	<path class="st0" d="M171,4c40.33,0,78.25,15.71,106.77,44.23C306.3,76.75,322,114.67,322,155s-15.71,78.25-44.23,106.77
		C249.26,290.29,211.34,306,171,306s-78.25-15.71-106.77-44.23C35.71,233.25,20,195.33,20,155S35.71,76.75,64.23,48.23
		C92.75,19.71,130.67,4,171,4 M171,0C85.4,0,16,69.4,16,155s69.4,155,155,155s155-69.4,155-155S256.61,0,171,0L171,0z"/>
	<path class="st0" d="M536.98,4c40.33,0,78.25,15.71,106.77,44.23s44.23,66.44,44.23,106.77s-15.71,78.25-44.23,106.77
		C615.23,290.29,577.31,306,536.98,306s-78.25-15.71-106.77-44.23c-28.52-28.52-44.23-66.44-44.23-106.77s15.71-78.25,44.23-106.77
		C458.72,19.71,496.64,4,536.98,4 M536.98,0c-85.6,0-155,69.4-155,155s69.4,155,155,155s155-69.4,155-155S622.58,0,536.98,0
		L536.98,0z"/>
	<path class="st0" d="M902.99,4c40.33,0,78.25,15.71,106.77,44.23c28.52,28.52,44.23,66.44,44.23,106.77s-15.71,78.25-44.23,106.77
		C981.24,290.29,943.32,306,902.99,306s-78.25-15.71-106.77-44.23c-28.52-28.52-44.23-66.44-44.23-106.77s15.71-78.25,44.23-106.77
		S862.65,4,902.99,4 M902.99,0c-85.6,0-155,69.4-155,155s69.4,155,155,155s155-69.4,155-155S988.59,0,902.99,0L902.99,0z"/>
	<path class="st0" d="M1269,4c40.33,0,78.25,15.71,106.77,44.23C1404.29,76.75,1420,114.67,1420,155s-15.71,78.25-44.23,106.77
		C1347.25,290.29,1309.33,306,1269,306s-78.25-15.71-106.77-44.23C1133.7,233.25,1118,195.33,1118,155s15.71-78.25,44.23-106.77
		C1190.74,19.71,1228.66,4,1269,4 M1269,0c-85.6,0-155,69.4-155,155s69.4,155,155,155s155-69.4,155-155S1354.6,0,1269,0L1269,0z"/>
	<g>
		<path class="st1" d="M170.79,107.24v29.09h-4.4v-24.69h-0.17l-6.96,4.55v-4.2l7.26-4.74H170.79z"/>
	</g>
	<g>
		<path d="M118.73,185.38v1.36h-16.26v-1.36H118.73z M117.19,181.58c-2.72-0.62-5.52-2.54-6.66-5.18c-1.14,2.62-3.94,4.54-6.64,5.18
			l-0.74-1.36c3.14-0.62,6.52-3.32,6.52-6.38v-1.38h1.72v1.38c0,3.06,3.4,5.78,6.54,6.38L117.19,181.58z"/>
		<path d="M122.11,183.48c2.52,0,4.1-0.08,5.98-0.46l0.14,1.34c-2.04,0.4-3.72,0.46-6.54,0.46h-1.16v-11.48h6.68v1.34h-5.1v3.52
			h4.26v1.3h-4.26V183.48z M129.93,171.64h1.54v16.58h-1.54v-8.88h-2.6V178h2.6V171.64z M135.09,171.18v17.94h-1.56v-17.94H135.09z"
			/>
		<path d="M147.05,178.84c0,3.82-1.9,6.26-4.56,6.26s-4.56-2.44-4.56-6.26c0-3.82,1.9-6.26,4.56-6.26S147.05,175.02,147.05,178.84z
			 M139.49,178.84c0,2.92,1.24,4.8,3,4.8c1.74,0,2.98-1.88,2.98-4.8c0-2.9-1.24-4.78-2.98-4.78
			C140.73,174.06,139.49,175.94,139.49,178.84z M151.95,171.2v17.98h-1.64V171.2H151.95z"/>
		<path d="M157.07,183.3c3.18,0,5.48-0.14,8.08-0.6l0.18,1.36c-2.74,0.52-5.1,0.64-8.48,0.64h-1.42v-11.78h8.34v1.36h-6.7V183.3z
			 M171.43,179.64h-2.96v9.54h-1.64V171.2h1.64v7.08h2.96V179.64z"/>
		<path d="M174.47,183.3c3.18,0,5.48-0.14,8.08-0.6l0.18,1.36c-2.74,0.52-5.1,0.64-8.48,0.64h-1.42v-11.78h8.34v1.36h-6.7V183.3z
			 M188.83,179.64h-2.96v9.54h-1.64V171.2h1.64v7.08h2.96V179.64z"/>
		<path d="M193.73,180.32c-2.38,0-4.08-1.66-4.08-4.08c0-2.4,1.7-4.04,4.08-4.04c2.36,0,4.08,1.64,4.08,4.04
			C197.81,178.66,196.09,180.32,193.73,180.32z M193.73,178.98c1.48,0,2.58-1.14,2.58-2.74c0-1.6-1.1-2.72-2.58-2.72
			c-1.5,0-2.6,1.12-2.6,2.72C191.13,177.84,192.23,178.98,193.73,178.98z M202.99,181.78h1.62v7.12h-11.78v-7.12h1.64v2.16h8.52
			V181.78z M202.99,185.24h-8.52v2.32h8.52V185.24z M204.61,171.22V181h-1.58v-4.32h-2.28v4.18h-1.56v-9.3h1.56v3.76h2.28v-4.1
			H204.61z"/>
		<path d="M223.15,185.4v1.36h-16.3v-1.36H223.15z M221.49,177.28c0,3-2.8,4.96-6.52,4.96s-6.52-1.96-6.52-4.96
			c0-2.98,2.8-4.96,6.52-4.96S221.49,174.3,221.49,177.28z M210.01,177.28c0,2.18,2.14,3.62,4.96,3.62c2.84,0,4.96-1.44,4.96-3.62
			c0-2.16-2.12-3.62-4.96-3.62C212.15,173.66,210.01,175.12,210.01,177.28z"/>
		<path d="M240.55,185.58v1.34h-16.3v-1.34h7.3v-3.38h-5.26v-5.54h10.64v-2.8h-10.68v-1.34h12.28v5.46h-10.62v2.9h11.04v1.32h-5.74
			v3.38H240.55z"/>
		<path d="M94.27,206.76c-1.78,0.08-3.5,0.1-4.98,0.1l-0.22-1.36c3.32,0,7.76-0.04,11.56-0.52l0.14,1.18
			c-1.58,0.24-3.24,0.42-4.86,0.52v3.54h-1.64V206.76z M90.49,201.04c0-1.88,1.8-3.12,4.42-3.12s4.42,1.24,4.42,3.12
			c0,1.92-1.8,3.14-4.42,3.14S90.49,202.96,90.49,201.04z M104.31,213.4v1.34H91.63v-5.22h1.64v3.88H104.31z M92.05,201.04
			c0,1.16,1.16,1.92,2.86,1.92c1.7,0,2.86-0.76,2.86-1.92c0-1.14-1.16-1.9-2.86-1.9C93.21,199.14,92.05,199.9,92.05,201.04z
			 M102.21,207.8v-10.6h1.64v13.66h-1.64v-1.84h-3.64v-1.22H102.21z"/>
		<path d="M112.63,200.08h4.42v1.32h-10.58v-1.32h4.52v-2.66h1.64V200.08z M116.21,207.02c0,2.44-1.82,4.12-4.38,4.12
			c-2.52,0-4.34-1.68-4.34-4.12c0-2.42,1.82-4.14,4.34-4.14C114.39,202.88,116.21,204.6,116.21,207.02z M114.65,207.02
			c0-1.62-1.18-2.78-2.82-2.78c-1.62,0-2.8,1.16-2.8,2.78c0,1.6,1.18,2.76,2.8,2.76C113.47,209.78,114.65,208.62,114.65,207.02z
			 M123.33,205.96h-2.94v9.18h-1.64v-17.92h1.64v7.36h2.94V205.96z"/>
		<path d="M140.21,206.34v1.32h-16.26v-1.32H140.21z M127.67,213.36h10.78v1.34h-12.42v-5.24h1.64V213.36z M138.35,203.94h-12.2
			v-6.08h1.64v4.74h10.56V203.94z"/>
		<path d="M154.65,207.38c-2.26,0.44-4.12,0.54-6.7,0.54h-1.16v-5.34h4.72v-2.62h-4.76v-1.28h6.36v5.14h-4.72v2.78
			c2.3-0.02,4.06-0.1,6.08-0.52L154.65,207.38z M161.63,213.4v1.34h-12.22v-5.4h1.64v4.06H161.63z M156.01,203.52h-2.2v-1.34h2.2
			v-4.64h1.56v12.68h-1.56V203.52z M161.11,210.68h-1.58v-13.46h1.58V210.68z"/>
		<path d="M173.77,205.48c-2.46,0.4-4.5,0.46-8.22,0.46h-1.36v-7.84h8.2v1.3h-6.56v1.92h6.24v1.26h-6.24v2.06
			c3.5,0,5.42-0.08,7.76-0.46L173.77,205.48z M167.55,213.66h10.4v1.28h-12v-4.5h9.72v-1.72h-9.78v-1.28h11.4v4.22h-9.74V213.66z
			 M179.95,201.12v1.34h-2.66v4.12h-1.64v-9.36h1.64v3.9H179.95z"/>
		<path d="M186.03,202.26c0,3.12,1.34,6.24,3.82,7.64l-1,1.2c-1.74-1.04-2.98-2.96-3.6-5.24c-0.62,2.46-1.92,4.56-3.7,5.68l-1-1.22
			c2.5-1.5,3.9-4.76,3.9-8.06v-1.62h-3.4v-1.34h8.18v1.34h-3.2V202.26z M190.83,197.6h1.56v16.6h-1.56v-9.22h-2.96v-1.34h2.96V197.6
			z M196.01,197.18v17.94h-1.58v-17.94H196.01z"/>
		<path d="M207.11,207.2v2.1h5.3v5.6h-12.24v-5.6h5.3v-2.1h-7.3v-1.32h16.22v1.32H207.11z M202.39,199.1h-2.7v-1.32h13.16v1.32
			h-2.72v3.76h2.64v1.32h-13.02v-1.32h2.64V199.1z M210.81,210.6h-9.04v2.98h9.04V210.6z M208.49,199.1h-4.46v3.76h4.46V199.1z"/>
		<path d="M229.79,207.64c-1.98-0.78-3.52-2.32-4.28-4.26c-0.76,2.14-2.36,3.84-4.46,4.68l-0.86-1.3c2.68-0.98,4.48-3.52,4.48-6.26
			v-2.22h1.64v2.28c0,2.5,1.76,4.86,4.34,5.82L229.79,207.64z M235.37,213.4v1.34h-11.96v-5.6h1.64v4.26H235.37z M233.29,202.78
			h-3.92v-1.36h3.92v-4.2h1.66v13.4h-1.66V202.78z"/>
		<path d="M246.13,206.64c-2.06,0.42-3.76,0.5-6.64,0.5h-1.14v-8.62h6.92v1.32h-5.34v2.26h5.14v1.26h-5.14v2.44
			c2.56,0,4.16-0.1,6.04-0.48L246.13,206.64z M240.65,209.02h12.06v6.12h-1.64v-4.8h-10.42V209.02z M252.71,197.22v10.86h-1.58
			v-4.86h-2.4v4.74h-1.56v-10.42h1.56v4.34h2.4v-4.66H252.71z"/>
	</g>
	<g>
		<path class="st1" d="M527.81,136.33v-3.18l9.84-10.2c1.05-1.11,1.92-2.08,2.61-2.92c0.69-0.84,1.2-1.64,1.54-2.39
			c0.34-0.76,0.51-1.56,0.51-2.41c0-0.97-0.23-1.8-0.68-2.51c-0.45-0.71-1.07-1.25-1.86-1.63c-0.79-0.38-1.67-0.58-2.66-0.58
			c-1.04,0-1.95,0.21-2.73,0.64s-1.37,1.03-1.79,1.8c-0.42,0.78-0.63,1.69-0.63,2.73h-4.19c0-1.77,0.41-3.32,1.22-4.65
			c0.81-1.33,1.93-2.36,3.35-3.09s3.04-1.1,4.84-1.1c1.83,0,3.44,0.36,4.84,1.09c1.4,0.72,2.49,1.71,3.27,2.95s1.18,2.65,1.18,4.21
			c0,1.08-0.2,2.14-0.6,3.17c-0.4,1.03-1.1,2.18-2.1,3.44s-2.38,2.8-4.15,4.6l-5.78,6.05v0.21h13.1v3.76H527.81z"/>
	</g>
	<g>
		<path d="M482.16,181.64c-1.98-0.78-3.52-2.32-4.28-4.26c-0.76,2.14-2.36,3.84-4.46,4.68l-0.86-1.3c2.68-0.98,4.48-3.52,4.48-6.26
			v-2.22h1.64v2.28c0,2.5,1.76,4.86,4.34,5.82L482.16,181.64z M487.74,187.4v1.34h-11.96v-5.6h1.64v4.26H487.74z M485.66,176.78
			h-3.92v-1.36h3.92v-4.2h1.66v13.4h-1.66V176.78z"/>
		<path d="M498.5,180.64c-2.06,0.42-3.76,0.5-6.64,0.5h-1.14v-8.62h6.92v1.32h-5.34v2.26h5.14v1.26h-5.14v2.44
			c2.56,0,4.16-0.1,6.04-0.48L498.5,180.64z M493.02,183.02h12.06v6.12h-1.64v-4.8h-10.42V183.02z M505.08,171.22v10.86h-1.58v-4.86
			h-2.4v4.74h-1.56v-10.42h1.56v4.34h2.4v-4.66H505.08z"/>
		<path d="M517.98,174.72H507.4v-1.32h4.46v-2.18h1.64v2.18h4.48V174.72z M512.68,182.38c-2.54,0-4.28-1.32-4.28-3.34
			c0-2,1.74-3.32,4.28-3.32s4.3,1.32,4.3,3.32C516.98,181.06,515.22,182.38,512.68,182.38z M512.68,181.1c1.62,0,2.74-0.8,2.74-2.06
			c0-1.24-1.12-2.04-2.74-2.04c-1.64,0-2.72,0.8-2.72,2.04C509.96,180.3,511.04,181.1,512.68,181.1z M511.74,187.4h10.32v1.34H510.1
			v-5.14h1.64V187.4z M523.92,177.12v1.38h-2.66v6.16h-1.64v-13.44h1.64v5.9H523.92z"/>
		<path d="M534.6,176.26c0,3.12,1.34,6.24,3.82,7.64l-1,1.2c-1.74-1.04-2.98-2.96-3.6-5.24c-0.62,2.46-1.92,4.56-3.7,5.68l-1-1.22
			c2.5-1.5,3.9-4.76,3.9-8.06v-1.62h-3.4v-1.34h8.18v1.34h-3.2V176.26z M539.4,171.6h1.56v16.6h-1.56v-9.22h-2.96v-1.34h2.96V171.6z
			 M544.58,171.18v17.94H543v-17.94H544.58z"/>
		<path d="M555.68,181.2v2.1h5.3v5.6h-12.24v-5.6h5.3v-2.1h-7.3v-1.32h16.22v1.32H555.68z M550.96,173.1h-2.7v-1.32h13.16v1.32
			h-2.72v3.76h2.64v1.32h-13.02v-1.32h2.64V173.1z M559.38,184.6h-9.04v2.98h9.04V184.6z M557.06,173.1h-4.46v3.76h4.46V173.1z"/>
		<path d="M578.5,181.66c-2-0.72-3.54-2.22-4.32-4.06c-0.78,2.04-2.42,3.7-4.52,4.46l-0.86-1.28c2.66-0.96,4.52-3.34,4.52-5.88V174
			h-4v-1.34h9.58V174h-3.94v0.88c0,2.34,1.76,4.58,4.36,5.5L578.5,181.66z M584.02,187.4v1.34h-11.98v-5.54h1.66v4.2H584.02z
			 M581.86,176.16v-4.94h1.66v13.14h-1.66v-6.86h-3.6v-1.34H581.86z"/>
		<path d="M596.72,178.92c-2.52,0.52-4.7,0.64-8.4,0.64h-1.38v-7.32h7.92v1.32h-6.3v4.68c3.48,0,5.56-0.14,7.96-0.62L596.72,178.92z
			 M590.32,187.58h10.4v1.32h-12v-4.58h9.72v-1.88h-9.78v-1.3h11.4v4.42h-9.74V187.58z M602.72,174.98v1.34h-2.66v3.9h-1.64v-9.02
			h1.64v3.78H602.72z"/>
	</g>
	<g>
		<path class="st1" d="M903.33,136.73c-1.95,0-3.69-0.34-5.22-1.01s-2.74-1.61-3.62-2.81c-0.89-1.2-1.36-2.59-1.43-4.17h4.46
			c0.06,0.86,0.35,1.61,0.87,2.24c0.53,0.63,1.21,1.12,2.07,1.46s1.8,0.51,2.84,0.51c1.15,0,2.16-0.2,3.05-0.6
			c0.89-0.4,1.58-0.95,2.08-1.67c0.5-0.71,0.75-1.54,0.75-2.48c0-0.98-0.25-1.83-0.75-2.58c-0.5-0.74-1.22-1.33-2.17-1.75
			c-0.95-0.43-2.1-0.64-3.44-0.64h-2.46v-3.58h2.46c1.08,0,2.03-0.19,2.85-0.58s1.46-0.93,1.92-1.63c0.46-0.7,0.7-1.51,0.7-2.45
			c0-0.9-0.2-1.68-0.6-2.35c-0.4-0.67-0.97-1.19-1.71-1.57c-0.73-0.38-1.6-0.57-2.59-0.57c-0.95,0-1.83,0.17-2.65,0.52
			c-0.82,0.35-1.48,0.84-2,1.48c-0.51,0.64-0.79,1.4-0.82,2.29h-4.25c0.05-1.57,0.51-2.95,1.4-4.15c0.89-1.19,2.06-2.13,3.52-2.8
			s3.08-1.01,4.86-1.01c1.87,0,3.48,0.36,4.84,1.09c1.36,0.72,2.41,1.69,3.15,2.89c0.74,1.2,1.11,2.52,1.1,3.95
			c0.01,1.63-0.44,3.01-1.36,4.15c-0.91,1.14-2.13,1.9-3.64,2.29v0.23c1.93,0.29,3.43,1.06,4.5,2.3c1.07,1.24,1.59,2.78,1.58,4.62
			c0.01,1.6-0.43,3.04-1.33,4.3c-0.89,1.27-2.11,2.27-3.66,2.99C907.08,136.37,905.32,136.73,903.33,136.73z"/>
	</g>
	<g>
		<path d="M847.23,181.38c-2.26,0.44-4.12,0.54-6.7,0.54h-1.16v-5.34h4.72v-2.62h-4.76v-1.28h6.36v5.14h-4.72v2.78
			c2.3-0.02,4.06-0.1,6.08-0.52L847.23,181.38z M854.21,187.4v1.34h-12.22v-5.4h1.64v4.06H854.21z M848.59,177.52h-2.2v-1.34h2.2
			v-4.64h1.56v12.68h-1.56V177.52z M853.69,184.68h-1.58v-13.46h1.58V184.68z"/>
		<path d="M866.35,179.48c-2.46,0.4-4.5,0.46-8.22,0.46h-1.36v-7.84h8.2v1.3h-6.56v1.92h6.24v1.26h-6.24v2.06
			c3.5,0,5.42-0.08,7.76-0.46L866.35,179.48z M860.13,187.66h10.4v1.28h-12v-4.5h9.72v-1.72h-9.78v-1.28h11.4v4.22h-9.74V187.66z
			 M872.53,175.12v1.34h-2.66v4.12h-1.64v-9.36h1.64v3.9H872.53z"/>
		<path d="M887.23,178.84c0,3.82-1.86,6.26-4.5,6.26s-4.52-2.44-4.52-6.26c0-3.82,1.88-6.26,4.52-6.26S887.23,175.02,887.23,178.84z
			 M885.67,178.84c0-2.9-1.22-4.78-2.94-4.78c-1.74,0-2.96,1.88-2.96,4.78c0,2.92,1.22,4.8,2.96,4.8
			C884.45,183.64,885.67,181.76,885.67,178.84z M894.71,179.74h-2.96v9.4h-1.64v-17.92h1.64v7.14h2.96V179.74z"/>
		<path d="M905.13,178.84c0,3.82-1.9,6.26-4.56,6.26c-2.66,0-4.56-2.44-4.56-6.26c0-3.82,1.9-6.26,4.56-6.26
			C903.23,172.58,905.13,175.02,905.13,178.84z M897.57,178.84c0,2.92,1.24,4.8,3,4.8c1.74,0,2.98-1.88,2.98-4.8
			c0-2.9-1.24-4.78-2.98-4.78C898.81,174.06,897.57,175.94,897.57,178.84z M910.03,171.2v17.98h-1.64V171.2H910.03z"/>
		<path d="M921.31,180.44c-2.04,0.4-3.74,0.48-6.6,0.48h-1.14v-8.56h6.78v1.32h-5.2v2.22h4.5v1.28h-4.5v2.42
			c2.54,0,4.16-0.1,6.02-0.48L921.31,180.44z M916.11,182.86h11.78v6.04h-11.78V182.86z M917.71,187.58h8.58v-3.42h-8.58V187.58z
			 M922.85,177.04h-2.38v-1.32h2.38v-4.22h1.56v10.32h-1.56V177.04z M927.89,171.2V182h-1.58v-10.8H927.89z"/>
		<path d="M940.77,175.98c0,3.16,2.04,6.42,4.56,7.68l-1.02,1.3c-1.9-1.02-3.52-3.12-4.34-5.58c-0.78,2.62-2.44,4.86-4.46,5.94
			l-0.98-1.32c2.58-1.32,4.62-4.76,4.62-8.02v-3.22h1.62V175.98z M951.51,179.84h-2.96v9.3h-1.64v-17.92h1.64v7.26h2.96V179.84z"/>
		<path d="M968.37,180.08v1.32h-16.24v-1.32h4.02v-2.52c-1.42-0.58-2.2-1.48-2.2-2.7c0-2.1,2.42-3.34,6.3-3.34
			c3.9,0,6.3,1.24,6.3,3.34c0,1.2-0.8,2.12-2.18,2.68v2.54H968.37z M966.39,185.94c0,2.06-2.28,3.18-6.14,3.18
			c-3.84,0-6.14-1.12-6.14-3.18c0-2.06,2.3-3.2,6.14-3.2C964.11,182.74,966.39,183.88,966.39,185.94z M960.25,176.92
			c2.86,0,4.62-0.78,4.62-2.06c0-1.3-1.76-2.06-4.62-2.06s-4.62,0.76-4.62,2.06C955.63,176.14,957.39,176.92,960.25,176.92z
			 M964.73,185.94c0-1.22-1.68-1.92-4.48-1.92c-2.82,0-4.48,0.7-4.48,1.92c0,1.22,1.66,1.92,4.48,1.92
			C963.05,187.86,964.73,187.16,964.73,185.94z M957.77,180.08h4.98v-2.1c-0.74,0.12-1.58,0.2-2.5,0.2c-0.9,0-1.74-0.08-2.48-0.2
			V180.08z"/>
		<path d="M819.05,207.44c0-3.92,1.1-7.16,2.94-10.14l1.14,0.52c-1.74,2.86-2.56,6.22-2.56,9.62c0,3.4,0.82,6.78,2.56,9.62
			l-1.14,0.54C820.15,214.6,819.05,211.38,819.05,207.44z"/>
		<path d="M826.43,209.3c3.18,0,5.48-0.14,8.08-0.6l0.18,1.36c-2.74,0.52-5.1,0.64-8.48,0.64h-1.42v-11.78h8.34v1.36h-6.7V209.3z
			 M840.79,205.64h-2.96v9.54h-1.64V197.2h1.64v7.08h2.96V205.64z"/>
		<path d="M857.69,207.14v1.34h-16.28v-1.34H857.69z M853.99,199.08h-10.52v-1.28h12.14v4.46h-10.48v1.96h10.86v1.28h-12.48v-4.46
			h10.48V199.08z M845.19,213.4h10.8v1.34h-12.44v-4.88h1.64V213.4z"/>
		<path d="M879.67,211.28v1.34h-16.22v-1.34h6.3v-6.42h1.64v6.42H879.67z M876.09,200.34h-10.94V199h12.58v1.78
			c0,2.22,0,4.68-0.68,8.3l-1.64-0.18c0.68-3.44,0.68-5.96,0.68-8.12V200.34z"/>
		<path d="M888.63,198.54c0,4.28-2.36,7.5-6.9,9.42l-0.8-1.2c3.66-1.5,5.72-3.92,6.02-6.9h-5.32v-1.32H888.63z M883.91,208.62h12.06
			v6.52h-1.64v-5.18h-10.42V208.62z M895.97,197.22v10.54h-1.58v-4.7h-2.36v4.62h-1.56v-10.14h1.56v4.18h2.36v-4.5H895.97z"/>
		<path d="M903.47,209.76c1.96-0.08,3.96-0.18,5.78-0.42l0.1,1.2c-3.72,0.6-7.94,0.68-11.12,0.68l-0.18-1.36
			c1.14,0,2.46-0.02,3.8-0.06v-5.52h1.62V209.76z M905.95,207.1c0.5-2.98,0.54-5.16,0.54-6.6h-7.46v-1.34h9.06v0.98
			c0,1.44,0,3.78-0.5,7.12L905.95,207.1z M914.85,206.08h-2.86v9.06h-1.64V197.2h1.64v7.5h2.86V206.08z"/>
		<path d="M936.45,211.28v1.34h-16.22v-1.34h3.98v-5.94h1.62v5.94h2.82v-5.94h1.62v5.94H936.45z M932.91,200.34h-11V199h12.64v1.98
			c0,2.28,0,4.62-0.64,7.98l-1.62-0.2c0.62-3.2,0.62-5.56,0.62-7.78V200.34z"/>
		<path d="M948.95,208.4c-3.8,0.7-8.1,0.76-11.22,0.78l-0.18-1.32c1.4,0,3.06-0.02,4.78-0.08v-1.36c-2.06-0.2-3.38-1.2-3.38-2.74
			c0-1.7,1.68-2.74,4.2-2.74c2.5,0,4.18,1.04,4.18,2.74c0,1.54-1.3,2.52-3.36,2.74v1.28c1.64-0.08,3.32-0.22,4.86-0.48L948.95,208.4
			z M948.29,200.18h-10.3v-1.22h4.34v-1.82h1.64v1.82h4.32V200.18z M941.83,213.4h10.34v1.34h-11.98v-4.42h1.64V213.4z
			 M943.15,205.28c1.58,0,2.62-0.6,2.62-1.6c0-0.96-1.04-1.58-2.62-1.58c-1.62,0-2.64,0.62-2.64,1.58
			C940.51,204.68,941.53,205.28,943.15,205.28z M954.17,203.46v1.36h-2.64v6.42h-1.64V197.2h1.64v6.26H954.17z"/>
		<path d="M961.09,200.08h4.42v1.32h-10.58v-1.32h4.52v-2.66h1.64V200.08z M964.67,207.02c0,2.44-1.82,4.12-4.38,4.12
			c-2.52,0-4.34-1.68-4.34-4.12c0-2.42,1.82-4.14,4.34-4.14C962.85,202.88,964.67,204.6,964.67,207.02z M963.11,207.02
			c0-1.62-1.18-2.78-2.82-2.78c-1.62,0-2.8,1.16-2.8,2.78c0,1.6,1.18,2.76,2.8,2.76C961.93,209.78,963.11,208.62,963.11,207.02z
			 M971.79,205.96h-2.94v9.18h-1.64v-17.92h1.64v7.36h2.94V205.96z"/>
		<path d="M987.21,197.2v17.98h-1.64v-6.96h-4.48c-0.74,1.82-2.14,2.88-3.86,2.88c-2.62,0-4.48-2.44-4.48-6.26
			c0-3.82,1.86-6.26,4.48-6.26c1.66,0,2.98,0.96,3.74,2.64h4.6v-4.02H987.21z M980.15,204.84c0-2.9-1.22-4.78-2.92-4.78
			c-1.72,0-2.92,1.88-2.92,4.78c0,2.92,1.2,4.8,2.92,4.8C978.93,209.64,980.15,207.76,980.15,204.84z M985.57,206.88v-4.32h-4.14
			c0.16,0.7,0.26,1.46,0.26,2.28c0,0.74-0.08,1.42-0.2,2.04H985.57z"/>
		<path d="M861.39,227.98c0,3.16,2.04,6.42,4.56,7.68l-1.02,1.3c-1.9-1.02-3.52-3.12-4.34-5.58c-0.78,2.62-2.44,4.86-4.46,5.94
			l-0.98-1.32c2.58-1.32,4.62-4.76,4.62-8.02v-3.22h1.62V227.98z M872.13,231.84h-2.96v9.3h-1.64v-17.92h1.64v7.26h2.96V231.84z"/>
		<path d="M888.99,232.08v1.32h-16.24v-1.32h4.02v-2.52c-1.42-0.58-2.2-1.48-2.2-2.7c0-2.1,2.42-3.34,6.3-3.34
			c3.9,0,6.3,1.24,6.3,3.34c0,1.2-0.8,2.12-2.18,2.68v2.54H888.99z M887.01,237.94c0,2.06-2.28,3.18-6.14,3.18
			c-3.84,0-6.14-1.12-6.14-3.18c0-2.06,2.3-3.2,6.14-3.2C884.73,234.74,887.01,235.88,887.01,237.94z M880.87,228.92
			c2.86,0,4.62-0.78,4.62-2.06c0-1.3-1.76-2.06-4.62-2.06c-2.86,0-4.62,0.76-4.62,2.06C876.25,228.14,878.01,228.92,880.87,228.92z
			 M885.35,237.94c0-1.22-1.68-1.92-4.48-1.92c-2.82,0-4.48,0.7-4.48,1.92c0,1.22,1.66,1.92,4.48,1.92
			C883.67,239.86,885.35,239.16,885.35,237.94z M878.39,232.08h4.98v-2.1c-0.74,0.12-1.58,0.2-2.5,0.2c-0.9,0-1.74-0.08-2.48-0.2
			V232.08z"/>
		<path d="M906.45,237.52v1.36h-16.3v-1.36h7.3v-4.6h-5.22v-8.28h12.16v1.34h-10.52v5.62h10.7v1.32h-5.46v4.6H906.45z"/>
		<path d="M921.33,225.12c0,5.1-2.34,9.72-8.14,12.62l-0.9-1.28c4.58-2.3,7.04-5.74,7.42-9.98h-6.58v-1.36H921.33z M928.85,231.84
			h-2.88v9.3h-1.64V223.2h1.64v7.28h2.88V231.84z"/>
		<path d="M945.81,231.6v1.34h-16.22v-1.34H945.81z M943.81,237.82c0,2.08-2.32,3.26-6.14,3.26c-3.82,0-6.14-1.18-6.14-3.26
			c0-2.1,2.32-3.28,6.14-3.28C941.49,234.54,943.81,235.72,943.81,237.82z M943.95,229.52h-12.18v-5.94h1.64v4.62h10.54V229.52z
			 M942.15,237.82c0-1.28-1.66-2-4.48-2s-4.48,0.72-4.48,2c0,1.24,1.66,1.98,4.48,1.98C940.47,239.8,942.15,239.06,942.15,237.82z"
			/>
		<path d="M946.77,243.06c1.72-2.84,2.56-6.22,2.56-9.62c0-3.4-0.84-6.76-2.56-9.62l1.12-0.52c1.86,2.98,2.96,6.22,2.96,10.14
			c0,3.94-1.1,7.16-2.96,10.16L946.77,243.06z"/>
	</g>
	<g>
		<path class="st1" d="M1258.4,130.65v-3.55l12.57-19.86h2.8v5.23h-1.78L1263,126.7v0.23h17.23v3.72H1258.4z M1272.19,136.33v-6.76
			l0.03-1.62v-20.71h4.16v29.09H1272.19z"/>
	</g>
	<g>
		<path d="M1199.58,175.98c0,3.16,2.04,6.42,4.56,7.68l-1.02,1.3c-1.9-1.02-3.52-3.12-4.34-5.58c-0.78,2.62-2.44,4.86-4.46,5.94
			l-0.98-1.32c2.58-1.32,4.62-4.76,4.62-8.02v-3.22h1.62V175.98z M1210.32,179.84h-2.96v9.3h-1.64v-17.92h1.64v7.26h2.96V179.84z"/>
		<path d="M1227.18,180.08v1.32h-16.24v-1.32h4.02v-2.52c-1.42-0.58-2.2-1.48-2.2-2.7c0-2.1,2.42-3.34,6.3-3.34
			c3.9,0,6.3,1.24,6.3,3.34c0,1.2-0.8,2.12-2.18,2.68v2.54H1227.18z M1225.2,185.94c0,2.06-2.28,3.18-6.14,3.18
			c-3.84,0-6.14-1.12-6.14-3.18c0-2.06,2.3-3.2,6.14-3.2C1222.92,182.74,1225.2,183.88,1225.2,185.94z M1219.06,176.92
			c2.86,0,4.62-0.78,4.62-2.06c0-1.3-1.76-2.06-4.62-2.06c-2.86,0-4.62,0.76-4.62,2.06C1214.44,176.14,1216.2,176.92,1219.06,176.92
			z M1223.54,185.94c0-1.22-1.68-1.92-4.48-1.92c-2.82,0-4.48,0.7-4.48,1.92c0,1.22,1.66,1.92,4.48,1.92
			C1221.86,187.86,1223.54,187.16,1223.54,185.94z M1216.58,180.08h4.98v-2.1c-0.74,0.12-1.58,0.2-2.5,0.2
			c-0.9,0-1.74-0.08-2.48-0.2V180.08z"/>
		<path d="M1249.22,184.18h-7.32v4.98h-1.66v-4.98h-7.28v-1.34h16.26V184.18z M1248.22,174.58h-14.42v-1.32h6.44v-2.16h1.66v2.16
			h6.32V174.58z M1241.08,175.6c3.62,0,5.8,1.08,5.8,3c0,1.92-2.18,2.98-5.8,2.98c-3.66,0-5.84-1.06-5.84-2.98
			C1235.24,176.68,1237.42,175.6,1241.08,175.6z M1241.08,176.86c-2.62,0-4.14,0.64-4.14,1.74c0,1.1,1.52,1.74,4.14,1.74
			c2.62,0,4.1-0.64,4.1-1.74C1245.18,177.5,1243.7,176.86,1241.08,176.86z"/>
		<path d="M1264.24,178.84c0,3.82-1.86,6.26-4.5,6.26s-4.52-2.44-4.52-6.26c0-3.82,1.88-6.26,4.52-6.26
			S1264.24,175.02,1264.24,178.84z M1262.68,178.84c0-2.9-1.22-4.78-2.94-4.78c-1.74,0-2.96,1.88-2.96,4.78
			c0,2.92,1.22,4.8,2.96,4.8C1261.46,183.64,1262.68,181.76,1262.68,178.84z M1271.72,179.74h-2.96v9.4h-1.64v-17.92h1.64v7.14h2.96
			V179.74z"/>
		<path d="M1282.14,178.84c0,3.82-1.9,6.26-4.56,6.26c-2.66,0-4.56-2.44-4.56-6.26c0-3.82,1.9-6.26,4.56-6.26
			C1280.24,172.58,1282.14,175.02,1282.14,178.84z M1274.58,178.84c0,2.92,1.24,4.8,3,4.8c1.74,0,2.98-1.88,2.98-4.8
			c0-2.9-1.24-4.78-2.98-4.78C1275.82,174.06,1274.58,175.94,1274.58,178.84z M1287.04,171.2v17.98h-1.64V171.2H1287.04z"/>
		<path d="M1298.32,180.44c-2.04,0.4-3.74,0.48-6.6,0.48h-1.14v-8.56h6.78v1.32h-5.2v2.22h4.5v1.28h-4.5v2.42
			c2.54,0,4.16-0.1,6.02-0.48L1298.32,180.44z M1293.12,182.86h11.78v6.04h-11.78V182.86z M1294.72,187.58h8.58v-3.42h-8.58V187.58z
			 M1299.86,177.04h-2.38v-1.32h2.38v-4.22h1.56v10.32h-1.56V177.04z M1304.9,171.2V182h-1.58v-10.8H1304.9z"/>
		<path d="M1320.8,181.38h-8.3v-8.88h1.62v3h5.08v-3h1.6V181.38z M1319.2,176.78h-5.08v3.28h5.08V176.78z M1316.16,187.4h10.32v1.34
			h-11.96v-5.62h1.64V187.4z M1328.34,176.64v1.38h-2.66v6.36h-1.64v-13.16h1.64v5.42H1328.34z"/>
		<path d="M1339.82,178.9c-3.02,0.6-5.7,0.8-8.38,0.8h-1.4v-7.66h1.62v6.28c2.54-0.02,5.1-0.2,7.96-0.76L1339.82,178.9z
			 M1341.46,181.5h1.62v7.4h-11.32v-7.4h1.62v2.38h8.08V181.5z M1341.46,185.2h-8.08v2.38h8.08V185.2z M1345.76,176.58h-2.66v3.96
			h-1.66v-9.32h1.66v4h2.66V176.58z"/>
	</g>
	<path class="st1" d="M418.98,160.69H289c-0.41,0-0.75-0.34-0.75-0.75s0.34-0.75,0.75-0.75h127.67l-11.79-8.51
		c-0.34-0.24-0.41-0.71-0.17-1.05c0.24-0.34,0.71-0.41,1.05-0.17l13.67,9.87c0.26,0.19,0.37,0.53,0.27,0.84
		C419.6,160.48,419.31,160.69,418.98,160.69z"/>
	<path class="st1" d="M784.97,160.69H654.99c-0.41,0-0.75-0.34-0.75-0.75s0.34-0.75,0.75-0.75h127.66l-11.79-8.51
		c-0.33-0.24-0.41-0.71-0.17-1.05c0.24-0.34,0.71-0.41,1.05-0.17l13.67,9.87c0.26,0.19,0.37,0.53,0.27,0.84
		C785.59,160.48,785.3,160.69,784.97,160.69z"/>
	<path class="st1" d="M1150.98,160.69H1021c-0.41,0-0.75-0.34-0.75-0.75s0.34-0.75,0.75-0.75h127.66l-11.79-8.51
		c-0.33-0.24-0.41-0.71-0.17-1.05c0.24-0.34,0.71-0.41,1.05-0.17l13.67,9.87c0.26,0.19,0.37,0.53,0.27,0.84
		C1151.6,160.48,1151.31,160.69,1150.98,160.69z"/>
</g>
</svg>
