<?xml version="1.0" encoding="utf-8"?>
<!-- Generator: Adobe Illustrator 23.0.0, SVG Export Plug-In . SVG Version: 6.00 Build 0)  -->
<svg version="1.1" id="레이어_1" xmlns="http://www.w3.org/2000/svg" xmlns:xlink="http://www.w3.org/1999/xlink" x="0px"
	 y="0px" viewBox="0 0 120 28" style="enable-background:new 0 0 120 28;" xml:space="preserve">
<style type="text/css">
	.st0{fill:#0008CB;}
</style>
<g>
	<path class="st0" d="M16.42,16.34c-1.19,1.69-2.52,2.99-3.98,3.92c-1.46,0.92-3.12,1.38-4.98,1.38c-1.13,0-2.16-0.17-3.08-0.51
		c-0.92-0.34-1.7-0.83-2.34-1.48c-0.65-0.65-1.15-1.44-1.5-2.37C0.18,16.33,0,15.27,0,14.08c0-1.24,0.15-2.44,0.45-3.58
		c0.3-1.14,0.73-2.22,1.29-3.22c0.56-1,1.23-1.91,2.01-2.74c0.78-0.82,1.65-1.53,2.61-2.12c0.96-0.59,2-1.05,3.11-1.37
		c1.11-0.33,2.27-0.49,3.48-0.49c0.93,0,1.74,0.1,2.44,0.3c0.7,0.2,1.3,0.49,1.81,0.86c0.51,0.37,0.94,0.83,1.3,1.36
		c0.36,0.54,0.66,1.13,0.91,1.79h0.09c0.33-0.58,0.69-1.21,1.08-1.89c0.39-0.69,0.74-1.33,1.06-1.93h7.04
		c-1.31,1.9-2.47,3.59-3.49,5.08c-0.44,0.64-0.86,1.27-1.26,1.87c-0.41,0.61-0.78,1.15-1.11,1.64c-0.38,0.56-0.74,1.09-1.09,1.59
		c0.1,1.7,0.34,3,0.71,3.9c0.37,0.9,0.97,1.34,1.8,1.34c0.29,0,0.59-0.02,0.9-0.07c0.31-0.05,0.61-0.13,0.91-0.25
		c-0.2,0.78-0.41,1.57-0.61,2.37c-0.2,0.79-0.41,1.59-0.61,2.38c-0.33,0.12-0.79,0.24-1.37,0.35c-0.58,0.12-1.26,0.18-2.05,0.18
		c-1.47,0-2.61-0.41-3.44-1.24c-0.82-0.82-1.29-2.11-1.41-3.87H16.42z M15.72,8.82c-0.1-0.72-0.26-1.34-0.47-1.87
		C15.04,6.42,14.76,6,14.4,5.7c-0.36-0.3-0.81-0.45-1.36-0.45c-0.84,0-1.64,0.26-2.38,0.77C9.92,6.52,9.28,7.19,8.72,8.01
		c-0.55,0.82-0.98,1.73-1.3,2.75c-0.31,1.01-0.47,2.03-0.47,3.05c0,0.43,0.06,0.83,0.17,1.19c0.12,0.36,0.28,0.67,0.5,0.93
		c0.22,0.26,0.48,0.46,0.8,0.61c0.31,0.14,0.67,0.22,1.06,0.22c1.05,0,2.07-0.39,3.06-1.17c1-0.78,1.9-1.86,2.72-3.23l0.68-1.22
		C15.9,10.31,15.83,9.54,15.72,8.82"/>
	<g>
		<path class="st0" d="M57.54,6.78C57.47,6,57.16,5.4,56.61,4.97c-0.55-0.43-1.34-0.65-2.36-0.65c-0.68,0-1.24,0.09-1.69,0.26
			C52.11,4.76,51.77,5,51.55,5.31c-0.23,0.31-0.34,0.66-0.35,1.05c-0.01,0.32,0.05,0.61,0.2,0.86c0.14,0.25,0.36,0.46,0.63,0.65
			c0.28,0.19,0.61,0.35,1.01,0.49c0.39,0.14,0.84,0.26,1.33,0.37l1.86,0.42c1.07,0.23,2.01,0.54,2.83,0.93
			c0.82,0.39,1.51,0.85,2.07,1.38c0.56,0.54,0.98,1.15,1.27,1.85c0.29,0.7,0.44,1.48,0.44,2.34c-0.01,1.36-0.35,2.54-1.03,3.52
			c-0.68,0.98-1.66,1.73-2.94,2.25c-1.28,0.52-2.82,0.78-4.62,0.78c-1.81,0-3.39-0.27-4.73-0.81c-1.34-0.54-2.39-1.36-3.14-2.47
			c-0.75-1.1-1.13-2.5-1.15-4.19h5c0.04,0.7,0.23,1.28,0.56,1.74c0.33,0.46,0.79,0.82,1.37,1.06c0.58,0.24,1.25,0.36,2.02,0.36
			c0.7,0,1.3-0.09,1.8-0.28c0.5-0.19,0.88-0.45,1.15-0.79c0.27-0.34,0.4-0.73,0.41-1.16c-0.01-0.41-0.13-0.76-0.38-1.05
			c-0.25-0.29-0.62-0.55-1.14-0.76c-0.51-0.22-1.16-0.41-1.95-0.6l-2.26-0.53c-1.87-0.43-3.35-1.12-4.42-2.08
			c-1.08-0.96-1.61-2.26-1.6-3.9c-0.01-1.34,0.35-2.51,1.08-3.52c0.72-1.01,1.73-1.79,3.01-2.35C51.16,0.28,52.62,0,54.26,0
			c1.68,0,3.13,0.28,4.37,0.85c1.24,0.57,2.19,1.36,2.88,2.38c0.68,1.02,1.03,2.2,1.05,3.55H57.54z"/>
		<path class="st0" d="M70.95,12.67v9.25h-5.16V0.3h4.99v8.38h0.18c0.37-1,0.97-1.78,1.8-2.34c0.83-0.56,1.86-0.85,3.07-0.85
			c1.14,0,2.13,0.25,2.98,0.76c0.84,0.5,1.5,1.21,1.97,2.13c0.47,0.92,0.7,1.98,0.69,3.21v10.34h-5.16V12.6
			c0.01-0.9-0.22-1.6-0.68-2.11c-0.46-0.51-1.1-0.76-1.93-0.76c-0.54,0-1.02,0.12-1.43,0.35c-0.41,0.24-0.73,0.57-0.96,1.01
			C71.08,11.52,70.96,12.05,70.95,12.67z"/>
		<path class="st0" d="M92.55,22.23c-1.7,0-3.17-0.35-4.39-1.05c-1.22-0.7-2.16-1.68-2.82-2.94c-0.66-1.26-0.99-2.71-0.99-4.38
			c0-1.67,0.33-3.13,0.99-4.39c0.66-1.26,1.6-2.23,2.82-2.93c1.22-0.7,2.68-1.05,4.39-1.05c1.7,0,3.17,0.35,4.39,1.05
			c1.22,0.7,2.16,1.68,2.82,2.93c0.66,1.26,0.99,2.72,0.99,4.39c0,1.66-0.33,3.12-0.99,4.38c-0.66,1.26-1.6,2.23-2.82,2.94
			C95.71,21.87,94.25,22.23,92.55,22.23z M92.58,18.33c0.62,0,1.14-0.19,1.57-0.57c0.43-0.38,0.76-0.91,0.99-1.58
			c0.23-0.68,0.34-1.46,0.34-2.34c0-0.9-0.11-1.69-0.34-2.37c-0.23-0.68-0.56-1.2-0.99-1.58c-0.43-0.38-0.95-0.57-1.57-0.57
			c-0.64,0-1.18,0.19-1.62,0.57c-0.44,0.38-0.77,0.91-1,1.58c-0.23,0.68-0.34,1.47-0.34,2.37c0,0.89,0.11,1.67,0.34,2.34
			c0.23,0.68,0.56,1.2,1,1.58C91.4,18.14,91.94,18.33,92.58,18.33z"/>
		<path class="st0" d="M103.69,28V5.7h5.11v2.78h0.16c0.21-0.49,0.51-0.97,0.9-1.42c0.39-0.46,0.89-0.83,1.5-1.12
			c0.61-0.29,1.34-0.44,2.19-0.44c1.13,0,2.18,0.3,3.16,0.89c0.98,0.59,1.78,1.5,2.38,2.73c0.61,1.23,0.91,2.8,0.91,4.71
			c0,1.84-0.29,3.38-0.87,4.61c-0.58,1.24-1.36,2.17-2.34,2.79s-2.07,0.93-3.27,0.93c-0.82,0-1.52-0.13-2.12-0.4
			c-0.6-0.27-1.1-0.62-1.5-1.06c-0.41-0.44-0.72-0.9-0.93-1.4h-0.11V28H103.69z M108.74,13.81c0,0.87,0.12,1.63,0.35,2.28
			c0.24,0.65,0.58,1.15,1.02,1.5c0.45,0.36,0.98,0.53,1.61,0.53c0.63,0,1.17-0.18,1.62-0.53c0.44-0.35,0.78-0.86,1.01-1.5
			c0.23-0.65,0.34-1.41,0.34-2.28s-0.11-1.63-0.34-2.27c-0.23-0.64-0.56-1.14-1-1.49c-0.44-0.35-0.98-0.53-1.62-0.53
			c-0.63,0-1.17,0.17-1.62,0.52c-0.44,0.34-0.78,0.84-1.02,1.48C108.86,12.16,108.74,12.92,108.74,13.81z"/>
	</g>
	<path class="st0" d="M40.16,9.11v3.98H30.15V9.11H40.16z"/>
</g>
</svg>
