<?xml version="1.0" encoding="utf-8"?>
<!-- Generator: Adobe Illustrator 23.0.0, SVG Export Plug-In . SVG Version: 6.00 Build 0)  -->
<svg version="1.1" id="레이어_1" xmlns="http://www.w3.org/2000/svg" xmlns:xlink="http://www.w3.org/1999/xlink" x="0px"
	 y="0px" viewBox="0 0 680 680" style="enable-background:new 0 0 680 680;" xml:space="preserve">
<style type="text/css">
	.st0{fill:#F0EEEA;}
	.st1{fill:#0008CB;}
</style>
<path class="st0" d="M155.92,4c40.58,0,78.73,15.8,107.43,44.5c28.69,28.69,44.5,66.85,44.5,107.43s-15.8,78.73-44.5,107.43
	c-28.69,28.69-66.85,44.5-107.43,44.5s-78.73-15.8-107.43-44.5C19.8,234.66,4,196.5,4,155.92S19.8,77.19,48.5,48.5
	C77.19,19.8,115.34,4,155.92,4 M155.92,0C69.81,0,0,69.81,0,155.92s69.81,155.92,155.92,155.92s155.92-69.81,155.92-155.92
	S242.04,0,155.92,0L155.92,0z"/>
<path class="st0" d="M524.08,4c40.58,0,78.73,15.8,107.43,44.5C660.2,77.19,676,115.34,676,155.92s-15.8,78.73-44.5,107.43
	c-28.69,28.69-66.85,44.5-107.43,44.5s-78.73-15.8-107.43-44.5c-28.69-28.69-44.5-66.85-44.5-107.43s15.8-78.73,44.5-107.43
	C445.34,19.8,483.5,4,524.08,4 M524.08,0c-86.11,0-155.92,69.81-155.92,155.92s69.81,155.92,155.92,155.92S680,242.04,680,155.92
	S610.19,0,524.08,0L524.08,0z"/>
<path class="st0" d="M155.92,372.15c40.58,0,78.73,15.8,107.43,44.5c28.69,28.69,44.5,66.85,44.5,107.43s-15.8,78.73-44.5,107.43
	C234.66,660.2,196.5,676,155.92,676S77.19,660.2,48.5,631.5C19.8,602.81,4,564.66,4,524.08s15.8-78.73,44.5-107.43
	C77.19,387.95,115.34,372.15,155.92,372.15 M155.92,368.15C69.81,368.15,0,437.96,0,524.08S69.81,680,155.92,680
	s155.92-69.81,155.92-155.92S242.04,368.15,155.92,368.15L155.92,368.15z"/>
<path class="st0" d="M524.08,372.15c40.58,0,78.73,15.8,107.43,44.5C660.2,445.34,676,483.5,676,524.08s-15.8,78.73-44.5,107.43
	C602.81,660.2,564.66,676,524.08,676s-78.73-15.8-107.43-44.5c-28.69-28.69-44.5-66.85-44.5-107.43s15.8-78.73,44.5-107.43
	C445.34,387.95,483.5,372.15,524.08,372.15 M524.08,368.15c-86.11,0-155.92,69.81-155.92,155.92S437.96,680,524.08,680
	S680,610.19,680,524.08S610.19,368.15,524.08,368.15L524.08,368.15z"/>
<g>
	<path class="st1" d="M155.71,107.88v29.26h-4.43v-24.83h-0.17l-7,4.57v-4.23l7.3-4.77H155.71z"/>
</g>
<g>
	<path d="M103.34,186.49v1.37H86.98v-1.37H103.34z M101.79,182.66c-2.74-0.62-5.55-2.56-6.7-5.21c-1.15,2.64-3.96,4.57-6.68,5.21
		l-0.75-1.37c3.16-0.62,6.56-3.34,6.56-6.42v-1.39h1.73v1.39c0,3.08,3.42,5.82,6.58,6.42L101.79,182.66z"/>
	<path d="M106.74,184.58c2.54,0,4.13-0.08,6.02-0.46l0.14,1.35c-2.05,0.4-3.74,0.46-6.58,0.46h-1.17v-11.55h6.72v1.35h-5.13v3.54
		h4.29v1.31h-4.29V184.58z M114.61,172.66h1.55v16.68h-1.55v-8.94h-2.62v-1.35h2.62V172.66z M119.8,172.2v18.05h-1.57V172.2H119.8z"
		/>
	<path d="M131.83,179.91c0,3.84-1.91,6.3-4.59,6.3s-4.59-2.46-4.59-6.3s1.91-6.3,4.59-6.3S131.83,176.06,131.83,179.91z
		 M124.22,179.91c0,2.94,1.25,4.83,3.02,4.83c1.75,0,3-1.89,3-4.83c0-2.92-1.25-4.81-3-4.81
		C125.47,175.1,124.22,176.99,124.22,179.91z M136.76,172.22v18.09h-1.65v-18.09H136.76z"/>
	<path d="M141.9,184.39c3.2,0,5.51-0.14,8.13-0.6l0.18,1.37c-2.76,0.52-5.13,0.64-8.53,0.64h-1.43v-11.85h8.39v1.37h-6.74V184.39z
		 M156.35,180.71h-2.98v9.6h-1.65v-18.09h1.65v7.12h2.98V180.71z"/>
	<path d="M159.41,184.39c3.2,0,5.51-0.14,8.13-0.6l0.18,1.37c-2.76,0.52-5.13,0.64-8.53,0.64h-1.43v-11.85h8.39v1.37h-6.74V184.39z
		 M173.86,180.71h-2.98v9.6h-1.65v-18.09h1.65v7.12h2.98V180.71z"/>
	<path d="M178.78,181.4c-2.39,0-4.11-1.67-4.11-4.11c0-2.42,1.71-4.07,4.11-4.07c2.38,0,4.11,1.65,4.11,4.07
		C182.89,179.73,181.16,181.4,178.78,181.4z M178.78,180.05c1.49,0,2.6-1.15,2.6-2.76s-1.11-2.74-2.6-2.74
		c-1.51,0-2.62,1.13-2.62,2.74S177.27,180.05,178.78,180.05z M188.1,182.87h1.63v7.17h-11.85v-7.17h1.65v2.17h8.57V182.87z
		 M188.1,186.35h-8.57v2.33h8.57V186.35z M189.73,172.24v9.84h-1.59v-4.35h-2.29v4.21h-1.57v-9.36h1.57v3.78h2.29v-4.13H189.73z"/>
	<path d="M208.38,186.51v1.37h-16.4v-1.37H208.38z M206.71,178.34c0,3.02-2.82,4.99-6.56,4.99s-6.56-1.97-6.56-4.99
		c0-3,2.82-4.99,6.56-4.99S206.71,175.34,206.71,178.34z M195.16,178.34c0,2.19,2.15,3.64,4.99,3.64c2.86,0,4.99-1.45,4.99-3.64
		c0-2.17-2.13-3.64-4.99-3.64C197.31,174.69,195.16,176.16,195.16,178.34z"/>
	<path d="M225.89,186.69v1.35h-16.4v-1.35h7.35v-3.4h-5.29v-5.57h10.71v-2.82H211.5v-1.35h12.36v5.49h-10.69v2.92h11.11v1.33h-5.78
		v3.4H225.89z"/>
	<path d="M78.73,207.99c-1.79,0.08-3.52,0.1-5.01,0.1l-0.22-1.37c3.34,0,7.81-0.04,11.63-0.52l0.14,1.19
		c-1.59,0.24-3.26,0.42-4.89,0.52v3.56h-1.65V207.99z M74.93,202.24c0-1.89,1.81-3.14,4.45-3.14c2.64,0,4.45,1.25,4.45,3.14
		c0,1.93-1.81,3.16-4.45,3.16C76.74,205.4,74.93,204.17,74.93,202.24z M88.83,214.68v1.35H76.07v-5.25h1.65v3.9H88.83z M76.5,202.24
		c0,1.17,1.17,1.93,2.88,1.93c1.71,0,2.88-0.77,2.88-1.93c0-1.15-1.17-1.91-2.88-1.91C77.66,200.33,76.5,201.09,76.5,202.24z
		 M86.72,209.04v-10.67h1.65v13.75h-1.65v-1.85h-3.66v-1.23H86.72z"/>
	<path d="M97.2,201.27h4.45v1.33H91v-1.33h4.55v-2.68h1.65V201.27z M100.8,208.25c0,2.46-1.83,4.15-4.41,4.15
		c-2.54,0-4.37-1.69-4.37-4.15c0-2.43,1.83-4.17,4.37-4.17C98.97,204.09,100.8,205.82,100.8,208.25z M99.23,208.25
		c0-1.63-1.19-2.8-2.84-2.8c-1.63,0-2.82,1.17-2.82,2.8c0,1.61,1.19,2.78,2.82,2.78C98.05,211.03,99.23,209.87,99.23,208.25z
		 M107.97,207.19h-2.96v9.24h-1.65v-18.03h1.65v7.41h2.96V207.19z"/>
	<path d="M124.95,207.57v1.33h-16.36v-1.33H124.95z M112.33,214.63h10.85v1.35h-12.5v-5.27h1.65V214.63z M123.08,205.16H110.8v-6.12
		h1.65v4.77h10.63V205.16z"/>
	<path d="M139.47,208.62c-2.27,0.44-4.15,0.54-6.74,0.54h-1.17v-5.37h4.75v-2.64h-4.79v-1.29h6.4v5.17h-4.75v2.8
		c2.31-0.02,4.09-0.1,6.12-0.52L139.47,208.62z M146.49,214.68v1.35h-12.3v-5.43h1.65v4.09H146.49z M140.84,204.73h-2.21v-1.35h2.21
		v-4.67h1.57v12.76h-1.57V204.73z M145.97,211.94h-1.59v-13.54h1.59V211.94z"/>
	<path d="M158.71,206.71c-2.48,0.4-4.53,0.46-8.27,0.46h-1.37v-7.89h8.25v1.31h-6.6v1.93h6.28v1.27h-6.28v2.07
		c3.52,0,5.45-0.08,7.81-0.46L158.71,206.71z M152.45,214.94h10.47v1.29h-12.08v-4.53h9.78v-1.73h-9.84v-1.29h11.47v4.25h-9.8
		V214.94z M164.92,202.32v1.35h-2.68v4.15h-1.65v-9.42h1.65v3.93H164.92z"/>
	<path d="M171.04,203.46c0,3.14,1.35,6.28,3.84,7.69l-1.01,1.21c-1.75-1.05-3-2.98-3.62-5.27c-0.62,2.48-1.93,4.59-3.72,5.72
		l-1.01-1.23c2.52-1.51,3.92-4.79,3.92-8.11v-1.63h-3.42v-1.35h8.23v1.35h-3.22V203.46z M175.87,198.78h1.57v16.71h-1.57v-9.28
		h-2.98v-1.35h2.98V198.78z M181.08,198.35v18.05h-1.59v-18.05H181.08z"/>
	<path d="M192.24,208.44v2.11h5.33v5.64h-12.32v-5.64h5.33v-2.11h-7.35v-1.33h16.32v1.33H192.24z M187.49,200.29h-2.72v-1.33h13.24
		v1.33h-2.74v3.78h2.66v1.33h-13.1v-1.33h2.66V200.29z M195.97,211.86h-9.1v3h9.1V211.86z M193.63,200.29h-4.49v3.78h4.49V200.29z"
		/>
	<path d="M215.06,208.88c-1.99-0.79-3.54-2.33-4.31-4.29c-0.76,2.15-2.38,3.87-4.49,4.71l-0.87-1.31c2.7-0.99,4.51-3.54,4.51-6.3
		v-2.23h1.65v2.29c0,2.52,1.77,4.89,4.37,5.86L215.06,208.88z M220.67,214.68v1.35h-12.04v-5.63h1.65v4.29H220.67z M218.58,203.99
		h-3.94v-1.37h3.94v-4.23h1.67v13.49h-1.67V203.99z"/>
	<path d="M231.5,207.87c-2.07,0.42-3.78,0.5-6.68,0.5h-1.15v-8.67h6.96v1.33h-5.37v2.28h5.17v1.27h-5.17v2.46
		c2.58,0,4.19-0.1,6.08-0.48L231.5,207.87z M225.98,210.27h12.14v6.16h-1.65v-4.83h-10.49V210.27z M238.12,198.39v10.93h-1.59v-4.89
		h-2.42v4.77h-1.57v-10.49h1.57v4.37h2.42v-4.69H238.12z"/>
</g>
<g>
	<path class="st1" d="M514.86,137.14v-3.2l9.9-10.26c1.06-1.11,1.93-2.09,2.62-2.94c0.69-0.84,1.21-1.65,1.55-2.41
		s0.51-1.57,0.51-2.43c0-0.97-0.23-1.81-0.69-2.52c-0.46-0.71-1.08-1.26-1.87-1.64c-0.79-0.39-1.68-0.58-2.67-0.58
		c-1.05,0-1.96,0.21-2.74,0.64s-1.38,1.03-1.8,1.82c-0.42,0.78-0.63,1.7-0.63,2.74h-4.22c0-1.78,0.41-3.34,1.23-4.67
		c0.82-1.33,1.94-2.37,3.37-3.11s3.05-1.11,4.87-1.11c1.84,0,3.46,0.36,4.87,1.09c1.4,0.73,2.5,1.72,3.29,2.97
		c0.79,1.25,1.19,2.67,1.19,4.24c0,1.09-0.2,2.15-0.61,3.19c-0.41,1.04-1.11,2.19-2.11,3.46c-1,1.27-2.39,2.81-4.17,4.62l-5.82,6.09
		v0.21h13.17v3.79H514.86z"/>
</g>
<g>
	<path d="M468.93,182.72c-1.99-0.79-3.54-2.33-4.31-4.29c-0.76,2.15-2.38,3.86-4.49,4.71l-0.87-1.31c2.7-0.99,4.51-3.54,4.51-6.3
		v-2.23h1.65v2.29c0,2.52,1.77,4.89,4.37,5.86L468.93,182.72z M474.55,188.52v1.35h-12.04v-5.63h1.65v4.29H474.55z M472.46,177.83
		h-3.94v-1.37h3.94v-4.23h1.67v13.48h-1.67V177.83z"/>
	<path d="M485.37,181.72c-2.07,0.42-3.78,0.5-6.68,0.5h-1.15v-8.67h6.96v1.33h-5.37v2.27h5.17v1.27h-5.17v2.46
		c2.58,0,4.19-0.1,6.08-0.48L485.37,181.72z M479.86,184.11h12.14v6.16h-1.65v-4.83h-10.49V184.11z M491.99,172.24v10.93h-1.59
		v-4.89h-2.42v4.77h-1.57v-10.49h1.57v4.37h2.42v-4.69H491.99z"/>
	<path d="M504.97,175.76h-10.65v-1.33h4.49v-2.19h1.65v2.19h4.51V175.76z M499.63,183.47c-2.56,0-4.31-1.33-4.31-3.36
		c0-2.01,1.75-3.34,4.31-3.34s4.33,1.33,4.33,3.34C503.96,182.14,502.19,183.47,499.63,183.47z M499.63,182.18
		c1.63,0,2.76-0.8,2.76-2.07c0-1.25-1.13-2.05-2.76-2.05c-1.65,0-2.74,0.8-2.74,2.05C496.9,181.38,497.98,182.18,499.63,182.18z
		 M498.69,188.52h10.39v1.35h-12.04v-5.17h1.65V188.52z M510.95,178.18v1.39h-2.68v6.2h-1.65v-13.53h1.65v5.94H510.95z"/>
	<path d="M521.69,177.31c0,3.14,1.35,6.28,3.84,7.69l-1.01,1.21c-1.75-1.05-3-2.98-3.62-5.27c-0.62,2.47-1.93,4.59-3.72,5.71
		l-1.01-1.23c2.52-1.51,3.92-4.79,3.92-8.11v-1.63h-3.42v-1.35h8.23v1.35h-3.22V177.31z M526.52,172.62h1.57v16.71h-1.57v-9.28
		h-2.98v-1.35h2.98V172.62z M531.73,172.2v18.05h-1.59V172.2H531.73z"/>
	<path d="M542.89,182.28v2.11h5.33v5.64h-12.32v-5.64h5.33v-2.11h-7.35v-1.33h16.32v1.33H542.89z M538.14,174.13h-2.72v-1.33h13.24
		v1.33h-2.74v3.78h2.66v1.33h-13.1v-1.33h2.66V174.13z M546.61,185.7h-9.1v3h9.1V185.7z M544.28,174.13h-4.49v3.78h4.49V174.13z"/>
	<path d="M565.85,182.74c-2.01-0.72-3.56-2.23-4.35-4.09c-0.79,2.05-2.44,3.72-4.55,4.49l-0.87-1.29c2.68-0.97,4.55-3.36,4.55-5.92
		v-0.91h-4.03v-1.35h9.64v1.35h-3.96v0.89c0,2.35,1.77,4.61,4.39,5.53L565.85,182.74z M571.4,188.52v1.35h-12.06v-5.58h1.67v4.23
		H571.4z M569.23,177.21v-4.97h1.67v13.22h-1.67v-6.9h-3.62v-1.35H569.23z"/>
	<path d="M584.18,179.99c-2.54,0.52-4.73,0.64-8.45,0.64h-1.39v-7.37h7.97v1.33h-6.34v4.71c3.5,0,5.59-0.14,8.01-0.62L584.18,179.99
		z M577.74,188.7h10.47v1.33h-12.08v-4.61h9.78v-1.89h-9.84v-1.31h11.47v4.45h-9.8V188.7z M590.21,176.02v1.35h-2.68v3.92h-1.65
		v-9.08h1.65v3.8H590.21z"/>
</g>
<g>
	<path class="st1" d="M156.27,505.69c-1.96,0-3.71-0.34-5.25-1.01c-1.54-0.68-2.75-1.62-3.64-2.82s-1.37-2.6-1.44-4.19h4.49
		c0.06,0.87,0.35,1.62,0.88,2.25c0.53,0.63,1.22,1.12,2.08,1.46c0.86,0.34,1.81,0.51,2.86,0.51c1.15,0,2.17-0.2,3.07-0.6
		c0.89-0.4,1.59-0.96,2.09-1.68c0.5-0.72,0.76-1.55,0.76-2.49c0-0.98-0.25-1.85-0.75-2.59c-0.5-0.75-1.23-1.34-2.19-1.76
		c-0.96-0.43-2.11-0.64-3.47-0.64h-2.47v-3.6h2.47c1.09,0,2.04-0.2,2.87-0.59s1.47-0.94,1.94-1.64s0.7-1.52,0.7-2.46
		c0-0.9-0.2-1.69-0.61-2.37s-0.98-1.2-1.71-1.58s-1.61-0.57-2.61-0.57c-0.95,0-1.84,0.17-2.67,0.52s-1.49,0.84-2.01,1.49
		s-0.79,1.41-0.83,2.31h-4.27c0.05-1.58,0.52-2.97,1.41-4.17c0.89-1.2,2.07-2.14,3.54-2.81c1.47-0.68,3.1-1.01,4.89-1.01
		c1.88,0,3.5,0.36,4.87,1.09c1.37,0.73,2.42,1.7,3.17,2.91c0.75,1.21,1.12,2.53,1.11,3.97c0.01,1.64-0.45,3.03-1.36,4.17
		c-0.92,1.14-2.14,1.91-3.67,2.3v0.23c1.94,0.3,3.45,1.07,4.52,2.32c1.07,1.25,1.6,2.8,1.59,4.64c0.01,1.61-0.44,3.05-1.34,4.33
		c-0.9,1.28-2.13,2.28-3.68,3.01S158.27,505.69,156.27,505.69z"/>
</g>
<g>
	<path d="M99.84,550.61c-2.27,0.44-4.15,0.54-6.74,0.54h-1.17v-5.37h4.75v-2.64h-4.79v-1.29h6.4v5.17h-4.75v2.8
		c2.31-0.02,4.09-0.1,6.12-0.52L99.84,550.61z M106.86,556.67v1.35h-12.3v-5.43h1.65v4.08H106.86z M101.2,546.73h-2.21v-1.35h2.21
		v-4.67h1.57v12.76h-1.57V546.73z M106.34,553.94h-1.59v-13.54h1.59V553.94z"/>
	<path d="M119.07,548.7c-2.48,0.4-4.53,0.46-8.27,0.46h-1.37v-7.89h8.25v1.31h-6.6v1.93h6.28v1.27h-6.28v2.07
		c3.52,0,5.45-0.08,7.81-0.46L119.07,548.7z M112.81,556.93h10.47v1.29H111.2v-4.53h9.78v-1.73h-9.84v-1.29h11.47v4.25h-9.8V556.93z
		 M125.29,544.31v1.35h-2.68v4.15h-1.65v-9.42h1.65v3.92H125.29z"/>
	<path d="M140.07,548.06c0,3.84-1.87,6.3-4.53,6.3s-4.55-2.46-4.55-6.3s1.89-6.3,4.55-6.3S140.07,544.21,140.07,548.06z
		 M138.5,548.06c0-2.92-1.23-4.81-2.96-4.81c-1.75,0-2.98,1.89-2.98,4.81c0,2.94,1.23,4.83,2.98,4.83
		C137.28,552.89,138.5,551,138.5,548.06z M147.6,548.96h-2.98v9.46h-1.65v-18.03h1.65v7.18h2.98V548.96z"/>
	<path d="M158.08,548.06c0,3.84-1.91,6.3-4.59,6.3s-4.59-2.46-4.59-6.3s1.91-6.3,4.59-6.3S158.08,544.21,158.08,548.06z
		 M150.47,548.06c0,2.94,1.25,4.83,3.02,4.83c1.75,0,3-1.89,3-4.83c0-2.92-1.25-4.81-3-4.81
		C151.72,543.25,150.47,545.14,150.47,548.06z M163.01,540.37v18.09h-1.65v-18.09H163.01z"/>
	<path d="M174.36,549.67c-2.05,0.4-3.76,0.48-6.64,0.48h-1.15v-8.61h6.82v1.33h-5.23v2.23h4.53v1.29h-4.53v2.44
		c2.56,0,4.19-0.1,6.06-0.48L174.36,549.67z M169.12,552.1h11.85v6.08h-11.85V552.1z M170.73,556.85h8.63v-3.44h-8.63V556.85z
		 M175.91,546.25h-2.39v-1.33h2.39v-4.25h1.57v10.38h-1.57V546.25z M180.98,540.37v10.87h-1.59v-10.87H180.98z"/>
	<path d="M193.93,545.18c0,3.18,2.05,6.46,4.59,7.73l-1.03,1.31c-1.91-1.03-3.54-3.14-4.37-5.62c-0.78,2.64-2.46,4.89-4.49,5.98
		l-0.99-1.33c2.6-1.33,4.65-4.79,4.65-8.07v-3.24h1.63V545.18z M204.74,549.06h-2.98v9.36h-1.65v-18.03h1.65v7.31h2.98V549.06z"/>
	<path d="M221.7,549.31v1.33h-16.34v-1.33h4.04v-2.54c-1.43-0.58-2.21-1.49-2.21-2.72c0-2.11,2.44-3.36,6.34-3.36
		c3.92,0,6.34,1.25,6.34,3.36c0,1.21-0.8,2.13-2.19,2.7v2.56H221.7z M219.71,555.2c0,2.07-2.29,3.2-6.18,3.2
		c-3.86,0-6.18-1.13-6.18-3.2c0-2.07,2.31-3.22,6.18-3.22C217.41,551.98,219.71,553.13,219.71,555.2z M213.53,546.13
		c2.88,0,4.65-0.79,4.65-2.07c0-1.31-1.77-2.07-4.65-2.07s-4.65,0.76-4.65,2.07C208.88,545.34,210.65,546.13,213.53,546.13z
		 M218.04,555.2c0-1.23-1.69-1.93-4.51-1.93c-2.84,0-4.51,0.7-4.51,1.93c0,1.23,1.67,1.93,4.51,1.93
		C216.35,557.13,218.04,556.43,218.04,555.2z M211.03,549.31h5.01v-2.11c-0.74,0.12-1.59,0.2-2.52,0.2c-0.91,0-1.75-0.08-2.5-0.2
		V549.31z"/>
	<path d="M71.49,576.83c0-3.95,1.11-7.21,2.96-10.21l1.15,0.52c-1.75,2.88-2.58,6.26-2.58,9.68c0,3.42,0.83,6.82,2.58,9.68
		l-1.15,0.54C72.59,584.04,71.49,580.79,71.49,576.83z"/>
	<path d="M78.91,578.7c3.2,0,5.51-0.14,8.13-0.6l0.18,1.37c-2.76,0.52-5.13,0.64-8.53,0.64h-1.43v-11.85h8.39v1.37h-6.74V578.7z
		 M93.36,575.02h-2.98v9.6h-1.65v-18.09h1.65v7.12h2.98V575.02z"/>
	<path d="M110.36,576.53v1.35H93.98v-1.35H110.36z M106.64,568.42H96.05v-1.29h12.22v4.49H97.72v1.97h10.93v1.29H96.09v-4.49h10.55
		V568.42z M97.78,582.83h10.87v1.35H96.13v-4.91h1.65V582.83z"/>
	<path d="M132.47,580.69v1.35h-16.32v-1.35h6.34v-6.46h1.65v6.46H132.47z M128.87,569.68h-11.01v-1.35h12.66v1.79
		c0,2.23,0,4.71-0.68,8.35l-1.65-0.18c0.68-3.46,0.68-6,0.68-8.17V569.68z"/>
	<path d="M141.48,567.87c0,4.31-2.38,7.55-6.94,9.48l-0.81-1.21c3.68-1.51,5.76-3.94,6.06-6.94h-5.35v-1.33H141.48z M136.73,578.02
		h12.14v6.56h-1.65v-5.21h-10.49V578.02z M148.87,566.54v10.61h-1.59v-4.73h-2.37v4.65h-1.57v-10.2h1.57v4.21h2.37v-4.53H148.87z"/>
	<path d="M156.41,579.16c1.97-0.08,3.99-0.18,5.82-0.42l0.1,1.21c-3.74,0.6-7.99,0.68-11.19,0.68l-0.18-1.37
		c1.15,0,2.48-0.02,3.82-0.06v-5.56h1.63V579.16z M158.91,576.49c0.5-3,0.54-5.19,0.54-6.64h-7.51v-1.35h9.12v0.99
		c0,1.45,0,3.8-0.5,7.17L158.91,576.49z M167.86,575.46h-2.88v9.12h-1.65v-18.05h1.65v7.55h2.88V575.46z"/>
	<path d="M189.59,580.69v1.35h-16.32v-1.35h4.01v-5.98h1.63v5.98h2.84v-5.98h1.63v5.98H189.59z M186.03,569.68h-11.07v-1.35h12.72
		v1.99c0,2.29,0,4.65-0.64,8.03l-1.63-0.2c0.62-3.22,0.62-5.6,0.62-7.83V569.68z"/>
	<path d="M202.16,577.79c-3.82,0.71-8.15,0.77-11.29,0.79l-0.18-1.33c1.41,0,3.08-0.02,4.81-0.08v-1.37c-2.07-0.2-3.4-1.21-3.4-2.76
		c0-1.71,1.69-2.76,4.23-2.76c2.52,0,4.21,1.05,4.21,2.76c0,1.55-1.31,2.54-3.38,2.76v1.29c1.65-0.08,3.34-0.22,4.89-0.48
		L202.16,577.79z M201.5,569.52h-10.37v-1.23h4.37v-1.83h1.65v1.83h4.35V569.52z M195,582.83h10.41v1.35h-12.06v-4.45H195V582.83z
		 M196.33,574.66c1.59,0,2.64-0.6,2.64-1.61c0-0.97-1.05-1.59-2.64-1.59c-1.63,0-2.66,0.62-2.66,1.59
		C193.67,574.05,194.7,574.66,196.33,574.66z M207.42,572.82v1.37h-2.66v6.46h-1.65v-14.13h1.65v6.3H207.42z"/>
	<path d="M214.37,569.42h4.45v1.33h-10.65v-1.33h4.55v-2.68h1.65V569.42z M217.98,576.41c0,2.46-1.83,4.15-4.41,4.15
		c-2.54,0-4.37-1.69-4.37-4.15c0-2.43,1.83-4.17,4.37-4.17C216.15,572.24,217.98,573.97,217.98,576.41z M216.41,576.41
		c0-1.63-1.19-2.8-2.84-2.8c-1.63,0-2.82,1.17-2.82,2.8c0,1.61,1.19,2.78,2.82,2.78C215.22,579.18,216.41,578.02,216.41,576.41z
		 M225.14,575.34h-2.96v9.24h-1.65v-18.03h1.65v7.41h2.96V575.34z"/>
	<path d="M240.65,566.53v18.09H239v-7h-4.51c-0.74,1.83-2.15,2.9-3.88,2.9c-2.64,0-4.51-2.46-4.51-6.3s1.87-6.3,4.51-6.3
		c1.67,0,3,0.97,3.76,2.66H239v-4.04H240.65z M233.55,574.21c0-2.92-1.23-4.81-2.94-4.81c-1.73,0-2.94,1.89-2.94,4.81
		c0,2.94,1.21,4.83,2.94,4.83C232.32,579.04,233.55,577.15,233.55,574.21z M239,576.27v-4.35h-4.17c0.16,0.7,0.26,1.47,0.26,2.29
		c0,0.75-0.08,1.43-0.2,2.05H239z"/>
	<path d="M114.08,597.49c0,3.18,2.05,6.46,4.59,7.73l-1.03,1.31c-1.91-1.03-3.54-3.14-4.37-5.62c-0.78,2.64-2.46,4.89-4.49,5.98
		l-0.99-1.33c2.6-1.33,4.65-4.79,4.65-8.07v-3.24h1.63V597.49z M124.89,601.38h-2.98v9.36h-1.65V592.7h1.65v7.31h2.98V601.38z"/>
	<path d="M141.85,601.62v1.33h-16.34v-1.33h4.04v-2.54c-1.43-0.58-2.21-1.49-2.21-2.72c0-2.11,2.44-3.36,6.34-3.36
		c3.92,0,6.34,1.25,6.34,3.36c0,1.21-0.8,2.13-2.19,2.7v2.56H141.85z M139.86,607.51c0,2.07-2.29,3.2-6.18,3.2
		c-3.86,0-6.18-1.13-6.18-3.2c0-2.07,2.31-3.22,6.18-3.22C137.56,604.29,139.86,605.44,139.86,607.51z M133.68,598.44
		c2.88,0,4.65-0.79,4.65-2.07c0-1.31-1.77-2.07-4.65-2.07s-4.65,0.76-4.65,2.07C129.03,597.65,130.8,598.44,133.68,598.44z
		 M138.19,607.51c0-1.23-1.69-1.93-4.51-1.93c-2.84,0-4.51,0.7-4.51,1.93c0,1.23,1.67,1.93,4.51,1.93
		C136.49,609.45,138.19,608.74,138.19,607.51z M131.18,601.62h5.01v-2.11c-0.74,0.12-1.59,0.2-2.52,0.2c-0.91,0-1.75-0.08-2.5-0.2
		V601.62z"/>
	<path d="M159.41,607.09v1.37h-16.4v-1.37h7.35v-4.63h-5.25v-8.33h12.24v1.35h-10.59v5.66h10.77v1.33h-5.49v4.63H159.41z"/>
	<path d="M174.38,594.61c0,5.13-2.35,9.78-8.19,12.7l-0.91-1.29c4.61-2.31,7.08-5.78,7.47-10.04h-6.62v-1.37H174.38z M181.95,601.38
		h-2.9v9.36h-1.65v-18.05h1.65v7.33h2.9V601.38z"/>
	<path d="M199.01,601.13v1.35h-16.32v-1.35H199.01z M196.99,607.39c0,2.09-2.33,3.28-6.18,3.28s-6.18-1.19-6.18-3.28
		c0-2.11,2.33-3.3,6.18-3.3S196.99,605.28,196.99,607.39z M197.13,599.04h-12.26v-5.98h1.65v4.65h10.61V599.04z M195.32,607.39
		c0-1.29-1.67-2.01-4.51-2.01s-4.51,0.72-4.51,2.01c0,1.25,1.67,1.99,4.51,1.99C193.63,609.38,195.32,608.64,195.32,607.39z"/>
	<path d="M199.97,612.67c1.73-2.86,2.58-6.26,2.58-9.68c0-3.42-0.84-6.8-2.58-9.68l1.13-0.52c1.87,3,2.98,6.26,2.98,10.2
		c0,3.96-1.11,7.21-2.98,10.22L199.97,612.67z"/>
</g>
<g>
	<path class="st1" d="M513.42,499.58v-3.57l12.65-19.98h2.81v5.26h-1.79l-9.04,14.32v0.23h17.33v3.74H513.42z M527.29,505.29v-6.8
		l0.03-1.63v-20.83h4.19v29.26H527.29z"/>
</g>
<g>
	<path d="M454.25,545.18c0,3.18,2.05,6.46,4.59,7.73l-1.03,1.31c-1.91-1.03-3.54-3.14-4.37-5.62c-0.78,2.64-2.46,4.89-4.49,5.98
		l-0.99-1.33c2.6-1.33,4.65-4.79,4.65-8.07v-3.24h1.63V545.18z M465.05,549.06h-2.98v9.36h-1.65v-18.03h1.65v7.31h2.98V549.06z"/>
	<path d="M482.01,549.31v1.33h-16.34v-1.33h4.04v-2.54c-1.43-0.58-2.21-1.49-2.21-2.72c0-2.11,2.44-3.36,6.34-3.36
		c3.92,0,6.34,1.25,6.34,3.36c0,1.21-0.8,2.13-2.19,2.7v2.56H482.01z M480.02,555.2c0,2.07-2.29,3.2-6.18,3.2
		c-3.86,0-6.18-1.13-6.18-3.2c0-2.07,2.31-3.22,6.18-3.22C477.73,551.98,480.02,553.13,480.02,555.2z M473.84,546.13
		c2.88,0,4.65-0.79,4.65-2.07c0-1.31-1.77-2.07-4.65-2.07s-4.65,0.76-4.65,2.07C469.19,545.34,470.96,546.13,473.84,546.13z
		 M478.35,555.2c0-1.23-1.69-1.93-4.51-1.93c-2.84,0-4.51,0.7-4.51,1.93c0,1.23,1.67,1.93,4.51,1.93
		C476.66,557.13,478.35,556.43,478.35,555.2z M471.35,549.31h5.01v-2.11c-0.74,0.12-1.59,0.2-2.52,0.2c-0.91,0-1.75-0.08-2.5-0.2
		V549.31z"/>
	<path d="M504.19,553.43h-7.37v5.01h-1.67v-5.01h-7.33v-1.35h16.36V553.43z M503.18,543.77h-14.51v-1.33h6.48v-2.17h1.67v2.17h6.36
		V543.77z M495.99,544.8c3.64,0,5.84,1.09,5.84,3.02c0,1.93-2.19,3-5.84,3c-3.68,0-5.88-1.07-5.88-3
		C490.12,545.88,492.31,544.8,495.99,544.8z M495.99,546.07c-2.64,0-4.17,0.64-4.17,1.75c0,1.11,1.53,1.75,4.17,1.75
		s4.13-0.64,4.13-1.75C500.12,546.71,498.63,546.07,495.99,546.07z"/>
	<path d="M519.29,548.06c0,3.84-1.87,6.3-4.53,6.3c-2.66,0-4.55-2.46-4.55-6.3s1.89-6.3,4.55-6.3
		C517.42,541.76,519.29,544.21,519.29,548.06z M517.72,548.06c0-2.92-1.23-4.81-2.96-4.81c-1.75,0-2.98,1.89-2.98,4.81
		c0,2.94,1.23,4.83,2.98,4.83C516.49,552.89,517.72,551,517.72,548.06z M526.82,548.96h-2.98v9.46h-1.65v-18.03h1.65v7.18h2.98
		V548.96z"/>
	<path d="M537.3,548.06c0,3.84-1.91,6.3-4.59,6.3s-4.59-2.46-4.59-6.3s1.91-6.3,4.59-6.3S537.3,544.21,537.3,548.06z M529.69,548.06
		c0,2.94,1.25,4.83,3.02,4.83c1.75,0,3-1.89,3-4.83c0-2.92-1.25-4.81-3-4.81C530.94,543.25,529.69,545.14,529.69,548.06z
		 M542.23,540.37v18.09h-1.65v-18.09H542.23z"/>
	<path d="M553.57,549.67c-2.05,0.4-3.76,0.48-6.64,0.48h-1.15v-8.61h6.82v1.33h-5.23v2.23h4.53v1.29h-4.53v2.44
		c2.56,0,4.19-0.1,6.06-0.48L553.57,549.67z M548.34,552.1h11.85v6.08h-11.85V552.1z M549.95,556.85h8.63v-3.44h-8.63V556.85z
		 M555.12,546.25h-2.39v-1.33h2.39v-4.25h1.57v10.38h-1.57V546.25z M560.2,540.37v10.87h-1.59v-10.87H560.2z"/>
	<path d="M576.19,550.61h-8.35v-8.94h1.63v3.02h5.11v-3.02h1.61V550.61z M574.58,545.99h-5.11v3.3h5.11V545.99z M571.52,556.67
		h10.39v1.35h-12.04v-5.66h1.65V556.67z M583.78,545.84v1.39h-2.68v6.4h-1.65v-13.24h1.65v5.45H583.78z"/>
	<path d="M595.32,548.12c-3.04,0.6-5.74,0.8-8.43,0.8h-1.41v-7.71h1.63v6.32c2.56-0.02,5.13-0.2,8.01-0.76L595.32,548.12z
		 M596.97,550.74h1.63v7.45h-11.39v-7.45h1.63v2.4h8.13V550.74z M596.97,554.46h-8.13v2.39h8.13V554.46z M601.3,545.78h-2.68v3.99
		h-1.67v-9.38h1.67v4.03h2.68V545.78z"/>
</g>
<path class="st1" d="M405.38,161.64H274.62c-0.41,0-0.75-0.34-0.75-0.75s0.34-0.75,0.75-0.75h128.44l-11.87-8.57
	c-0.33-0.24-0.41-0.71-0.17-1.05c0.24-0.33,0.71-0.41,1.05-0.17l13.75,9.93c0.26,0.19,0.37,0.53,0.27,0.84
	C405.99,161.43,405.71,161.64,405.38,161.64z"/>
<path class="st1" d="M293.77,386.98c-0.12,0-0.23-0.03-0.34-0.08c-0.29-0.15-0.45-0.47-0.4-0.79l2.7-16.75
	c0.07-0.41,0.46-0.69,0.86-0.62c0.41,0.07,0.69,0.45,0.62,0.86l-2.33,14.46l90.82-90.82c0.29-0.29,0.77-0.29,1.06,0
	s0.29,0.77,0,1.06l-92.46,92.46C294.16,386.91,293.96,386.98,293.77,386.98z"/>
<path class="st1" d="M405.4,529.79H274.64c-0.41,0-0.75-0.34-0.75-0.75s0.34-0.75,0.75-0.75h128.44l-11.87-8.57
	c-0.33-0.24-0.41-0.71-0.17-1.05c0.24-0.33,0.71-0.41,1.05-0.17l13.75,9.93c0.26,0.19,0.37,0.53,0.27,0.84
	C406.01,529.58,405.72,529.79,405.4,529.79z"/>
</svg>
