<?xml version="1.0" encoding="utf-8"?>
<!-- Generator: Adobe Illustrator 22.0.1, SVG Export Plug-In . SVG Version: 6.00 Build 0)  -->
<svg version="1.1" id="레이어_1" xmlns="http://www.w3.org/2000/svg" xmlns:xlink="http://www.w3.org/1999/xlink" x="0px"
	 y="0px" viewBox="0 0 8 18" style="enable-background:new 0 0 8 18;" xml:space="preserve">
<style type="text/css">
	.st0{fill:#FFFFFF;}
</style>
<path class="st0" d="M1.7,9.1v8.7c0,0.1,0.1,0.2,0.2,0.2H5c0.1,0,0.2-0.1,0.2-0.2V8.9h2.3c0.1,0,0.2-0.1,0.2-0.2L7.9,6
	c0-0.1-0.1-0.3-0.2-0.3H5.3V3.9c0-0.5,0.3-0.8,0.8-0.8h1.7C7.9,3.1,8,3,8,2.9V0.2C8,0.1,7.9,0,7.8,0H4.9C3.2-0.1,1.7,1.4,1.7,3.2
	v2.6H0.2C0.1,5.8,0,6,0,6v2.7C0,8.9,0.1,9,0.2,9L1.7,9.1L1.7,9.1z"/>
</svg>
