<svg xmlns="http://www.w3.org/2000/svg" width="391" height="387" viewBox="0 0 391 387">
  <defs>
    <style>
      .cls-1 {
        fill: #fff;
        fill-rule: evenodd;
      }
    </style>
  </defs>
  <path id="모양_1" data-name="모양 1" class="cls-1" d="M391.316,193.557c-0.564,40.706-12.273,77.663-35.826,110.877a192.029,192.029,0,0,1-77.31,64.137,194.509,194.509,0,0,1-73.507,17.776c-37.6,1.732-72.989-6.092-105.562-24.721-50.79-29.047-82.823-72.244-95.4-129.552A180.127,180.127,0,0,1,.208,180.7C2.659,145.749,13.72,113.648,33.85,84.768,59.011,48.671,92.619,23.91,134.3,10.009A182.571,182.571,0,0,1,204.84.581C272.629,5.2,325.527,35.768,362.322,93.093a177.811,177.811,0,0,1,26.9,75.516c1,8.28,1.414,16.631,2.1,24.948M96.713,323.225q0.3,0.762.6,1.524a51.152,51.152,0,0,0,5.77-.032c7.31-.835,14.7-1.326,21.888-2.8,18.816-3.873,35.685-11.525,47.97-27.017,1.728-2.178,3.665-2.311,5.938-2.006a154.781,154.781,0,0,0,59.822-3.906c27.214-7.028,51.091-19.865,68.784-42.161,19.678-24.8,25.023-52.412,13-82.2-9.234-22.873-26.3-39.042-47.643-50.59-33.154-17.937-68.575-22.679-105.464-15.7-30.459,5.758-57.091,18.837-77.64,42.762-22.749,26.487-26.889,61.812-10.41,92.142,9.816,18.069,24.518,31.4,42.3,41.427,2.789,1.573,3.4,3.186,2.828,6.287-2.548,13.72-9.885,24.644-19.449,34.338-2.687,2.722-5.523,5.3-8.291,7.94M103.368,174.9q-3.412,0-4.795-1.5a5.039,5.039,0,0,1-1.381-3.529,5.48,5.48,0,0,1,.284-1.744,3.913,3.913,0,0,1,.976-1.541,5.222,5.222,0,0,1,1.869-1.136,8.742,8.742,0,0,1,3.047-.446h40.954q3.413,0,4.794,1.5a5.143,5.143,0,0,1,1.381,3.609,5.462,5.462,0,0,1-.284,1.745,3.629,3.629,0,0,1-.975,1.5,5.592,5.592,0,0,1-1.869,1.1,8.73,8.73,0,0,1-3.047.446H131v45.346a6.013,6.013,0,0,1-.61,2.8,5.925,5.925,0,0,1-1.584,1.947,6.472,6.472,0,0,1-2.235,1.136,9.172,9.172,0,0,1-2.56.365,9.45,9.45,0,0,1-2.641-.365,6.9,6.9,0,0,1-2.274-1.136,5.7,5.7,0,0,1-1.626-1.947,6.013,6.013,0,0,1-.61-2.8V174.9H103.368Zm42.985,51.267a7.356,7.356,0,0,1-2.52-1.3A4.93,4.93,0,0,1,142.411,223a5.362,5.362,0,0,1-.447-2.108,6.349,6.349,0,0,1,.326-2.028l17.633-49.727a7.3,7.3,0,0,1,2.4-3.122,8.506,8.506,0,0,1,5.486-1.5,8.68,8.68,0,0,1,5.525,1.5,7.23,7.23,0,0,1,2.438,3.122L193.4,219.028q0.975,2.838-.082,4.543A5.962,5.962,0,0,1,189.663,226a6.94,6.94,0,0,1-5.16-.162,5.758,5.758,0,0,1-2.884-3.488l-3.738-11.114H158.216l-3.9,11.519a5.142,5.142,0,0,1-2.844,3,7.716,7.716,0,0,1-5.119.405m21.695-44.129-6.581,19.388h13.082Zm33.966-11.032a5.071,5.071,0,0,1,2.194-4.543,8.746,8.746,0,0,1,4.956-1.46,9.208,9.208,0,0,1,2.56.364,6.917,6.917,0,0,1,2.235,1.1,5.235,5.235,0,0,1,1.544,1.866,5.934,5.934,0,0,1,.568,2.677v45.346h23.4q3.413,0,4.752,1.541a5.378,5.378,0,0,1,1.342,3.65,6.011,6.011,0,0,1-.244,1.663,3.848,3.848,0,0,1-.934,1.583A5.356,5.356,0,0,1,242.52,226a8.061,8.061,0,0,1-3.046.487h-30.8a7.486,7.486,0,0,1-4.876-1.46,5.038,5.038,0,0,1-1.787-4.137V171.005Zm50.216,0.162a5.837,5.837,0,0,1,.61-2.718,5.714,5.714,0,0,1,1.625-1.947,6.9,6.9,0,0,1,2.316-1.136,9.917,9.917,0,0,1,2.681-.364,7.822,7.822,0,0,1,4.714,1.541,5.353,5.353,0,0,1,2.112,4.624v17.441l22.183-21.74a5.716,5.716,0,0,1,2.154-1.34,8.471,8.471,0,0,1,2.559-.485,7.573,7.573,0,0,1,2.479.323,6.141,6.141,0,0,1,2.072,1.1,5.276,5.276,0,0,1,1.908,4.056,5.366,5.366,0,0,1-1.746,4.137l-20.233,19.388,22.265,21.983a7.224,7.224,0,0,1,2.478,5.151,5.051,5.051,0,0,1-2.235,4.422,6.756,6.756,0,0,1-4.794,1.338,7.219,7.219,0,0,1-4.388-2.149l-24.7-24.579v20.036q0,3.325-2.112,4.786a8.11,8.11,0,0,1-4.714,1.46,9.878,9.878,0,0,1-2.681-.365,6.862,6.862,0,0,1-2.316-1.136,5.7,5.7,0,0,1-1.625-1.947,6.013,6.013,0,0,1-.61-2.8V171.167ZM311.784-95V500"/>
</svg>
