<?xml version="1.0" encoding="utf-8"?>
<!-- Generator: Adobe Illustrator 23.0.0, SVG Export Plug-In . SVG Version: 6.00 Build 0)  -->
<svg version="1.1" id="레이어_1" xmlns="http://www.w3.org/2000/svg" xmlns:xlink="http://www.w3.org/1999/xlink" x="0px"
	 y="0px" viewBox="0 0 18 18" style="enable-background:new 0 0 18 18;" xml:space="preserve">
<style type="text/css">
	.st0{fill:#0008CB;}
</style>
<g>
	<path class="st0" d="M16,17c-0.26,0-0.51-0.1-0.71-0.29l-14-14c-0.39-0.39-0.39-1.02,0-1.41s1.02-0.39,1.41,0l14,14
		c0.39,0.39,0.39,1.02,0,1.41C16.51,16.9,16.26,17,16,17z"/>
	<path class="st0" d="M2,17c-0.26,0-0.51-0.1-0.71-0.29c-0.39-0.39-0.39-1.02,0-1.41l14-14c0.39-0.39,1.02-0.39,1.41,0
		s0.39,1.02,0,1.41l-14,14C2.51,16.9,2.26,17,2,17z"/>
</g>
</svg>
