<?xml version="1.0" encoding="utf-8"?>
<!-- Generator: Adobe Illustrator 23.0.0, SVG Export Plug-In . SVG Version: 6.00 Build 0)  -->
<svg version="1.1" id="레이어_1" xmlns="http://www.w3.org/2000/svg" xmlns:xlink="http://www.w3.org/1999/xlink" x="0px"
	 y="0px" viewBox="0 0 72 62" style="enable-background:new 0 0 72 62;" xml:space="preserve">
<style type="text/css">
	.st0{fill:#0008CB;}
</style>
<path class="st0" d="M67.76,10.36c-0.83,0-1.59,0.25-2.24,0.66V7.15c0-2.34-1.9-4.24-4.24-4.24c-0.85,0-1.64,0.26-2.31,0.69
	C58.66,1.57,56.91,0,54.79,0s-3.87,1.57-4.18,3.6c-0.67-0.43-1.46-0.69-2.31-0.69c-2.34,0-4.24,1.9-4.24,4.24v10.51
	c-0.65-0.41-1.42-0.66-2.24-0.66c-0.24,0-0.47,0.03-0.69,0.07L26.17,4.75c-0.38-0.31-0.93-0.3-1.29,0.02L0.34,26.18
	C0.13,26.37,0,26.64,0,26.93V61c0,0.55,0.45,1,1,1h50.55c0.55,0,1-0.45,1-1v-7.07c0.73,0.1,1.48,0.16,2.23,0.16
	c9.49,0,17.21-7.72,17.21-17.21V14.61C72,12.27,70.1,10.36,67.76,10.36z M39.58,36.88V21.25c0-1.24,1.01-2.24,2.24-2.24
	s2.24,1.01,2.24,2.24v7.19c-0.02,1.16,0.73,2.2,1.8,2.54c4.76,1.57,7.96,6,7.96,11.01c0,0.55,0.45,1,1,1s1-0.45,1-1
	c0-5.88-3.75-11.07-9.35-12.92c-0.26-0.08-0.42-0.37-0.41-0.62V7.15c0-1.24,1.01-2.24,2.24-2.24s2.24,1.01,2.24,2.24v14.43
	c0,0.55,0.45,1,1,1s1-0.45,1-1V4.24c0-1.24,1.01-2.24,2.24-2.24s2.24,1.01,2.24,2.24v17.34c0,0.55,0.45,1,1,1s1-0.45,1-1V7.15
	c0-1.24,1.01-2.24,2.24-2.24s2.24,1.01,2.24,2.24v16.47c0,0.55,0.45,1,1,1s1-0.45,1-1v-9.02c0-1.24,1.01-2.24,2.24-2.24
	c1.24,0,2.24,1.01,2.24,2.24v22.28c0,8.39-6.82,15.21-15.21,15.21C46.4,52.09,39.58,45.27,39.58,36.88z M50.55,60H2V27.39
	L25.55,6.83l13.56,11.18c-0.93,0.78-1.54,1.93-1.54,3.24v15.63c0,8.03,5.53,14.77,12.98,16.66V60z"/>
</svg>
