<?xml version="1.0" encoding="utf-8"?>
<!-- Generator: Adobe Illustrator 23.0.0, SVG Export Plug-In . SVG Version: 6.00 Build 0)  -->
<svg version="1.1" id="레이어_1" xmlns="http://www.w3.org/2000/svg" xmlns:xlink="http://www.w3.org/1999/xlink" x="0px"
	 y="0px" viewBox="0 0 18 18" style="enable-background:new 0 0 18 18;" xml:space="preserve">
<g>
	<g>
		<g>
			<path d="M1.72,17.9c-0.38,0-0.84-0.11-1.17-0.44c-0.4-0.41-0.54-1-0.39-1.53l1.4-5c0.07-0.25,0.21-0.49,0.4-0.68l9.32-9.33
				c0.65-0.65,1.49-0.93,2.39-0.77c0.71,0.12,1.29,0.49,1.58,0.77l1.84,1.84c1.09,1.1,1.09,2.87,0,3.97l-9.31,9.32
				c-0.2,0.2-0.44,0.34-0.7,0.4l-4.98,1.4C1.98,17.88,1.86,17.9,1.72,17.9z M3.28,11.47L2,16.01l4.54-1.28l9.27-9.28
				c0.39-0.39,0.39-1.03,0-1.42l-1.84-1.84c-0.01-0.01-0.78-0.64-1.42,0L3.28,11.47z M6.6,14.72C6.6,14.72,6.59,14.72,6.6,14.72
				L6.6,14.72z M3.3,11.41L3.3,11.41C3.29,11.41,3.3,11.41,3.3,11.41z"/>
		</g>
	</g>
	<rect x="11.28" y="2.62" transform="matrix(0.7074 -0.7068 0.7068 0.7074 -0.5556 10.3114)" width="1.8" height="6.41"/>
	<rect x="4.44" y="9.47" transform="matrix(0.7076 -0.7066 0.7066 0.7076 -7.3943 7.4778)" width="1.8" height="6.41"/>
</g>
</svg>
