<?xml version="1.0" encoding="utf-8"?>
<!-- Generator: Adobe Illustrator 23.0.0, SVG Export Plug-In . SVG Version: 6.00 Build 0)  -->
<svg version="1.1" id="레이어_1" xmlns="http://www.w3.org/2000/svg" xmlns:xlink="http://www.w3.org/1999/xlink" x="0px"
	 y="0px" viewBox="0 0 16 18" style="enable-background:new 0 0 16 18;" xml:space="preserve">
<style type="text/css">
	.st0{fill:#0008CB;}
</style>
<g>
	<path class="st0" d="M15.1,17.9c-0.5,0-0.9-0.4-0.9-0.9v-1.78c0-1.46-1.19-2.66-2.65-2.66h-7.1c-1.46,0-2.65,1.19-2.65,2.66V17
		c0,0.5-0.4,0.9-0.9,0.9S0,17.5,0,17v-1.78c0-2.46,2-4.46,4.45-4.46h7.1c2.45,0,4.45,2,4.45,4.46V17C16,17.5,15.6,17.9,15.1,17.9z"
		/>
	<path class="st0" d="M8,9.01c-2.45,0-4.45-2-4.45-4.46S5.55,0.1,8,0.1s4.45,2,4.45,4.46S10.45,9.01,8,9.01z M8,1.9
		c-1.46,0-2.65,1.19-2.65,2.66S6.54,7.21,8,7.21s2.65-1.19,2.65-2.66S9.46,1.9,8,1.9z"/>
</g>
</svg>
