<?xml version="1.0" encoding="utf-8"?>
<!-- Generator: Adobe Illustrator 23.0.0, SVG Export Plug-In . SVG Version: 6.00 Build 0)  -->
<svg version="1.1" id="레이어_1" xmlns="http://www.w3.org/2000/svg" xmlns:xlink="http://www.w3.org/1999/xlink" x="0px"
	 y="0px" viewBox="0 0 22 18" style="enable-background:new 0 0 22 18;" xml:space="preserve">
<g>
	<path d="M14.03,14.9c-0.28,0-0.56-0.13-0.74-0.38c-0.29-0.4-0.2-0.97,0.21-1.26L19.53,9L13.5,4.73c-0.41-0.29-0.5-0.85-0.21-1.26
		c0.29-0.4,0.86-0.5,1.27-0.21l7.06,5C21.86,8.44,22,8.71,22,9s-0.14,0.56-0.38,0.73l-7.06,5C14.4,14.85,14.21,14.9,14.03,14.9z"/>
	<path d="M21.09,9.9H0.91C0.41,9.9,0,9.5,0,9s0.41-0.9,0.91-0.9h20.18C21.59,8.1,22,8.5,22,9S21.59,9.9,21.09,9.9z"/>
</g>
</svg>
