<?xml version="1.0" encoding="utf-8"?>
<!-- Generator: Adobe Illustrator 23.0.0, SVG Export Plug-In . SVG Version: 6.00 Build 0)  -->
<svg version="1.1" id="레이어_1" xmlns="http://www.w3.org/2000/svg" xmlns:xlink="http://www.w3.org/1999/xlink" x="0px"
	 y="0px" viewBox="0 0 18 18" style="enable-background:new 0 0 18 18;" xml:space="preserve">
<g>
	<path d="M6.67,13.33C2.99,13.33,0,10.34,0,6.67S2.99,0,6.67,0s6.67,2.99,6.67,6.67S10.34,13.33,6.67,13.33z M6.67,2
		C4.09,2,2,4.09,2,6.67c0,2.57,2.09,4.67,4.67,4.67s4.67-2.09,4.67-4.67C11.33,4.09,9.24,2,6.67,2z"/>
	<path d="M17,18c-0.26,0-0.51-0.1-0.71-0.29l-6.33-6.33c-0.39-0.39-0.39-1.02,0-1.41s1.02-0.39,1.41,0l6.33,6.33
		c0.39,0.39,0.39,1.02,0,1.41C17.51,17.9,17.26,18,17,18z"/>
</g>
</svg>
