<?xml version="1.0" encoding="utf-8"?>
<!-- Generator: Adobe Illustrator 23.0.0, SVG Export Plug-In . SVG Version: 6.00 Build 0)  -->
<svg version="1.1" id="레이어_1" xmlns="http://www.w3.org/2000/svg" xmlns:xlink="http://www.w3.org/1999/xlink" x="0px"
	 y="0px" viewBox="0 0 30 30" style="enable-background:new 0 0 30 30;" xml:space="preserve">
<style type="text/css">
	.st0{fill:#FFFFFF;}
</style>
<path class="st0" d="M18.15,12.36c-0.23-0.78-0.51-1.17-1.09-1.48c-0.6-0.31-1.33-0.45-2.28-0.45c-1.93,0-3.08,0.59-3.08,1.56
	c0,0.74,0.51,1.08,1.89,1.21l3.16,0.33c1.68,0.16,2.57,0.37,3.45,0.82c1.19,0.59,1.93,1.8,1.93,3.17c0,1.52-0.9,2.89-2.36,3.59
	c-1.25,0.61-2.71,0.86-4.81,0.86c-2.65,0-4.52-0.51-5.71-1.54c-0.92-0.78-1.25-1.64-1.36-3.36h3.41c0.1,0.86,0.33,1.31,0.86,1.72
	c0.72,0.55,1.62,0.78,2.96,0.78c2.12,0,3.35-0.63,3.35-1.7c0-0.86-0.64-1.29-2.16-1.45l-3.66-0.37c-2.85-0.29-4.39-1.58-4.39-3.65
	c0-2.72,2.49-4.38,6.55-4.38c2.05,0,3.9,0.47,5.07,1.27c1.01,0.7,1.46,1.52,1.72,3.07H18.15z"/>
</svg>
