<?xml version="1.0" encoding="utf-8"?>
<!-- Generator: Adobe Illustrator 23.0.0, SVG Export Plug-In . SVG Version: 6.00 Build 0)  -->
<svg version="1.1" id="레이어_1" xmlns="http://www.w3.org/2000/svg" xmlns:xlink="http://www.w3.org/1999/xlink" x="0px"
	 y="0px" viewBox="0 0 854 561" style="enable-background:new 0 0 854 561;" xml:space="preserve">
<style type="text/css">
	.st0{fill:#F0EEEA;}
	.st1{fill:#0008CB;}
</style>
<g>
	<circle class="st0" cx="134" cy="134" r="134"/>
</g>
<g>
	<path class="st1" d="M139.77,86.24v29.09h-4.4V90.64h-0.17l-6.96,4.55v-4.2l7.26-4.74H139.77z"/>
</g>
<g>
	<path d="M94.36,159.76c-1.78,0.08-3.5,0.1-4.98,0.1l-0.22-1.36c3.32,0,7.76-0.04,11.56-0.52l0.14,1.18
		c-1.58,0.24-3.24,0.42-4.86,0.52v3.54h-1.64V159.76z M90.58,154.04c0-1.88,1.8-3.12,4.42-3.12c2.62,0,4.42,1.24,4.42,3.12
		c0,1.92-1.8,3.14-4.42,3.14C92.38,157.18,90.58,155.96,90.58,154.04z M104.4,166.4v1.34H91.72v-5.22h1.64v3.88H104.4z
		 M92.14,154.04c0,1.16,1.16,1.92,2.86,1.92s2.86-0.76,2.86-1.92c0-1.14-1.16-1.9-2.86-1.9S92.14,152.9,92.14,154.04z M102.3,160.8
		v-10.6h1.64v13.66h-1.64v-1.84h-3.64v-1.22H102.3z"/>
	<path d="M112.72,153.08h4.42v1.32h-10.58v-1.32h4.52v-2.66h1.64V153.08z M116.3,160.02c0,2.44-1.82,4.12-4.38,4.12
		c-2.52,0-4.34-1.68-4.34-4.12c0-2.42,1.82-4.14,4.34-4.14C114.48,155.88,116.3,157.6,116.3,160.02z M114.74,160.02
		c0-1.62-1.18-2.78-2.82-2.78c-1.62,0-2.8,1.16-2.8,2.78c0,1.6,1.18,2.76,2.8,2.76C113.56,162.78,114.74,161.62,114.74,160.02z
		 M123.42,158.96h-2.94v9.18h-1.64v-17.92h1.64v7.36h2.94V158.96z"/>
	<path d="M140.3,159.34v1.32h-16.26v-1.32H140.3z M127.76,166.36h10.78v1.34h-12.42v-5.24h1.64V166.36z M138.44,156.94h-12.2v-6.08
		h1.64v4.74h10.56V156.94z"/>
	<path d="M152.46,155.68c0,3.04,2.16,6.14,4.8,7.26l-0.92,1.32c-2.08-0.96-3.84-3.02-4.7-5.48c-0.82,2.62-2.58,4.88-4.62,5.92
		l-0.96-1.32c2.58-1.22,4.76-4.6,4.76-7.7v-2.28h-4.16v-1.36h10.02v1.36h-4.22V155.68z M160.74,150.22v17.92h-1.64v-17.92H160.74z"
		/>
	<path d="M173.22,160.12c-2-0.72-3.54-2.22-4.32-4.06c-0.78,2.06-2.42,3.7-4.52,4.46l-0.86-1.28c2.66-0.96,4.52-3.34,4.52-5.88
		v-0.68h-4v-1.34h9.58v1.34h-3.94v0.66c0,2.34,1.76,4.58,4.36,5.5L173.22,160.12z M166.58,161.58h11.66v6.32h-11.66V161.58z
		 M168.18,166.58h8.46v-3.7h-8.46V166.58z M178.24,150.2v10.5h-1.66v-4.64h-3.54v-1.36h3.54v-4.5H178.24z"/>
	<path d="M96.28,184.7H87.9v-7.34h8.38V184.7z M96.82,188.98c0.02,1.72,2.82,3.46,5.9,3.84l-0.56,1.26c-2.7-0.38-5.1-1.62-6.16-3.28
		c-1.08,1.7-3.56,2.9-6.26,3.28l-0.54-1.26c3.06-0.36,5.92-2.06,5.94-3.84H89.9v-1.26h5.26v-1.74h1.66v1.74h5.26v1.26H96.82z
		 M94.68,178.66H89.5v4.72h5.18V178.66z M101.66,186.5h-1.64v-10.3h1.64V186.5z"/>
	<path d="M125.22,190.7v1.34h-16.26v-1.34h7.3v-2.52c-3.16-0.18-5.08-1.4-5.08-3.4c0-2.16,2.26-3.4,5.9-3.4
		c3.58,0,5.84,1.24,5.84,3.4c0,2-1.9,3.2-5.02,3.4v2.52H125.22z M124.32,180.16h-14.56v-1.34h6.5v-2.34h1.64v2.34h6.42V180.16z
		 M117.08,186.92c2.58,0,4.18-0.8,4.18-2.14c0-1.32-1.6-2.12-4.18-2.12c-2.62,0-4.24,0.8-4.24,2.12
		C112.84,186.12,114.46,186.92,117.08,186.92z"/>
	<path d="M136.4,184.98c-2.06-0.72-3.7-2.22-4.52-4.12c-0.78,2.06-2.44,3.7-4.56,4.46l-0.84-1.28c2.7-0.94,4.56-3.34,4.56-5.94
		v-1.36h1.64v1.36c0,2.48,1.88,4.72,4.54,5.6L136.4,184.98z M141.68,192.64v1.3H129.5v-4.46h9.96v-1.78h-10v-1.3h11.62v4.32h-9.96
		v1.92H141.68z M141.06,185.5h-1.64v-9.28h1.64V185.5z"/>
	<path d="M157.98,186.64c-1.98-0.78-3.52-2.32-4.28-4.26c-0.76,2.14-2.36,3.84-4.46,4.68l-0.86-1.3c2.68-0.98,4.48-3.52,4.48-6.26
		v-2.22h1.64v2.28c0,2.5,1.76,4.86,4.34,5.82L157.98,186.64z M163.56,192.4v1.34H151.6v-5.6h1.64v4.26H163.56z M161.48,181.78h-3.92
		v-1.36h3.92v-4.2h1.66v13.4h-1.66V181.78z"/>
	<path d="M174.32,185.64c-2.06,0.42-3.76,0.5-6.64,0.5h-1.14v-8.62h6.92v1.32h-5.34v2.26h5.14v1.26h-5.14v2.44
		c2.56,0,4.16-0.1,6.04-0.48L174.32,185.64z M168.84,188.02h12.06v6.12h-1.64v-4.8h-10.42V188.02z M180.9,176.22v10.86h-1.58v-4.86
		h-2.4v4.74h-1.56v-10.42h1.56v4.34h2.4v-4.66H180.9z"/>
</g>
<g>
	<g>
		<circle class="st0" cx="573.5" cy="427" r="134"/>
	</g>
	<g>
		<path class="st1" d="M573.26,408.73c-1.78,0-3.38-0.34-4.79-1.03c-1.42-0.69-2.54-1.63-3.39-2.83s-1.29-2.58-1.35-4.12h4.26
			c0.1,1.25,0.66,2.28,1.66,3.08c1,0.81,2.21,1.21,3.61,1.21c1.12,0,2.11-0.26,2.98-0.77c0.87-0.52,1.55-1.23,2.05-2.14
			s0.75-1.95,0.75-3.11c0-1.18-0.26-2.24-0.77-3.17c-0.51-0.93-1.21-1.66-2.11-2.19c-0.89-0.53-1.92-0.8-3.08-0.81
			c-0.88,0-1.77,0.15-2.66,0.45s-1.61,0.7-2.16,1.19l-4.02-0.6l1.63-14.66h15.99V383h-12.34l-0.92,8.14h0.17
			c0.57-0.55,1.32-1.01,2.27-1.38c0.94-0.37,1.95-0.55,3.03-0.55c1.77,0,3.35,0.42,4.74,1.26c1.39,0.84,2.48,1.99,3.28,3.44
			c0.8,1.45,1.2,3.12,1.19,5.01c0.01,1.88-0.42,3.57-1.27,5.04c-0.86,1.48-2.04,2.64-3.55,3.49
			C576.94,408.3,575.21,408.73,573.26,408.73z"/>
	</g>
	<g>
		<path d="M536.34,457.48v1.36h-16.3v-1.36h7.3v-3.74c-3.34-0.24-5.7-2.02-5.7-4.66c0-2.86,2.74-4.7,6.54-4.7
			c3.78,0,6.5,1.84,6.5,4.7c0,2.64-2.34,4.42-5.68,4.66v3.74H536.34z M528.18,452.48c2.86,0,4.94-1.34,4.94-3.4s-2.08-3.4-4.94-3.4
			c-2.86,0-4.96,1.34-4.96,3.4S525.32,452.48,528.18,452.48z"/>
		<path d="M553.72,457.48v1.36h-16.26v-1.36H553.72z M541.68,446.32h-2.78V445h13.3v1.32h-2.78v6.24h2.74v1.34h-13.22v-1.34h2.74
			V446.32z M547.78,446.32h-4.46v6.24h4.46V446.32z"/>
		<path d="M557.2,455.46c3.26,0,5.58-0.12,8.26-0.64l0.18,1.36c-2.8,0.5-5.2,0.64-8.62,0.64h-1.42v-6.86h6.44v-3.76h-6.5v-1.34h8.12
			v6.44h-6.46V455.46z M571.62,451.7h-2.94v9.46h-1.64v-17.98h1.64v7.14h2.94V451.7z"/>
		<path d="M577.34,453.3c-2.66,0-4.66-1.84-4.66-4.44c0-2.58,2-4.4,4.66-4.4c2.68,0,4.7,1.82,4.7,4.4
			C582.04,451.46,580.02,453.3,577.34,453.3z M577.34,451.88c1.78,0,3.1-1.24,3.1-3.02c0-1.74-1.32-2.98-3.1-2.98
			c-1.74,0-3.06,1.24-3.06,2.98C574.28,450.64,575.6,451.88,577.34,451.88z M587.52,459.4v1.34h-12.08v-5.76h1.64v4.42H587.52z
			 M586.98,456.32h-1.64v-13.1h1.64V456.32z"/>
		<path d="M610.52,455.4h-7.32v5.74h-1.64v-5.74h-7.32v-1.34h16.28V455.4z M608.72,452.22h-12.3v-8.18h12.08v1.32h-10.46v2.08h10.04
			v1.26h-10.04v2.2h10.68V452.22z"/>
		<path d="M626.44,443.2v17.98h-1.64v-9.8h-3.9c-0.16,3.52-1.94,5.72-4.44,5.72c-2.62,0-4.48-2.44-4.48-6.26
			c0-3.82,1.86-6.26,4.48-6.26c2.42,0,4.18,2.1,4.44,5.46h3.9v-6.84H626.44z M619.36,450.84c0-2.9-1.2-4.78-2.9-4.78
			c-1.72,0-2.92,1.88-2.92,4.78c0,2.92,1.2,4.8,2.92,4.8C618.16,455.64,619.36,453.76,619.36,450.84z"/>
		<path d="M535.78,477.7h-8.38v-7.34h8.38V477.7z M536.32,481.98c0.02,1.72,2.82,3.46,5.9,3.84l-0.56,1.26
			c-2.7-0.38-5.1-1.62-6.16-3.28c-1.08,1.7-3.56,2.9-6.26,3.28l-0.54-1.26c3.06-0.36,5.92-2.06,5.94-3.84h-5.24v-1.26h5.26v-1.74
			h1.66v1.74h5.26v1.26H536.32z M534.18,471.66H529v4.72h5.18V471.66z M541.16,479.5h-1.64v-10.3h1.64V479.5z"/>
		<path d="M558.54,469.68h1.56v16.54h-1.56v-6.2h-3.24v-1.34h3.24v-3.16h-2.96c-0.84,3.02-2.78,5.72-6.18,7.74l-0.96-1.16
			c3.86-2.3,5.78-5.52,6.06-9.28h-5.26v-1.34h6.88c0,0.92-0.08,1.82-0.24,2.72h2.66V469.68z M563.7,469.2v17.92h-1.56V469.2H563.7z"
			/>
		<path d="M570.88,478.76c-2.72,0-4.68-1.74-4.68-4.24c0-2.52,1.96-4.24,4.68-4.24c2.7,0,4.68,1.72,4.68,4.24
			C575.56,477.02,573.58,478.76,570.88,478.76z M570.88,477.38c1.78,0,3.08-1.18,3.08-2.86c0-1.7-1.3-2.86-3.08-2.86
			c-1.8,0-3.08,1.16-3.08,2.86C567.8,476.2,569.08,477.38,570.88,477.38z M568.12,480.7h11.66v6.44h-1.64v-5.1h-10.02V480.7z
			 M579.78,473.3v2.48h2.62v1.34h-2.62v2.74h-1.64v-10.64h1.64v2.72h2.62v1.36H579.78z"/>
		<path d="M599.18,480.02c-3.84,0.68-8.08,0.68-11.22,0.7l-0.18-1.32c1.42,0,3.06,0,4.78-0.06v-1.3c-2.08-0.2-3.38-1.16-3.38-2.64
			c0-1.64,1.66-2.66,4.2-2.66c2.5,0,4.18,1.02,4.18,2.66c0,1.46-1.3,2.42-3.36,2.64v1.24c1.64-0.08,3.3-0.2,4.86-0.44L599.18,480.02
			z M598.52,472.08h-10.3v-1.24h4.34v-1.76h1.64v1.76h4.32V472.08z M589.96,482.14h11.8v5h-1.64v-3.7h-10.16V482.14z M593.38,476.94
			c1.58,0,2.62-0.6,2.62-1.54s-1.04-1.52-2.62-1.52c-1.62,0-2.64,0.58-2.64,1.52S591.76,476.94,593.38,476.94z M604.4,476h-2.64
			v5.24h-1.64v-12.02h1.64v5.42h2.64V476z"/>
		<path d="M615.02,479.22c-2-0.72-3.54-2.2-4.32-4.04c-0.76,2.08-2.42,3.76-4.52,4.56l-0.86-1.3c2.68-0.98,4.52-3.4,4.52-5.98v-0.62
			h-4v-1.32h9.58v1.32h-3.94v0.62c0,2.3,1.76,4.56,4.36,5.48L615.02,479.22z M620.08,483.8c0,2.12-2.28,3.34-5.96,3.34
			s-5.98-1.22-5.98-3.34c0-2.12,2.3-3.34,5.98-3.34S620.08,481.68,620.08,483.8z M618.46,483.8c0-1.3-1.64-2.08-4.34-2.08
			c-2.7,0-4.34,0.78-4.34,2.08c0,1.3,1.64,2.06,4.34,2.06C616.82,485.86,618.46,485.1,618.46,483.8z M618.38,473.86v-4.64h1.66
			v10.68h-1.66v-4.7h-3.54v-1.34H618.38z"/>
	</g>
</g>
<g>
	<circle class="st0" cx="720" cy="134" r="134"/>
</g>
<g>
	<path class="st1" d="M720.34,115.73c-1.95,0-3.69-0.34-5.22-1.01s-2.74-1.61-3.62-2.81c-0.89-1.2-1.36-2.59-1.43-4.17h4.46
		c0.06,0.86,0.35,1.61,0.87,2.24c0.53,0.63,1.21,1.12,2.07,1.46s1.8,0.51,2.84,0.51c1.15,0,2.16-0.2,3.05-0.6
		c0.89-0.4,1.58-0.95,2.08-1.67c0.5-0.71,0.75-1.54,0.75-2.48c0-0.98-0.25-1.83-0.75-2.58c-0.5-0.74-1.22-1.33-2.17-1.75
		c-0.95-0.43-2.1-0.64-3.44-0.64h-2.46v-3.58h2.46c1.08,0,2.03-0.19,2.85-0.58s1.46-0.93,1.92-1.63c0.46-0.7,0.7-1.51,0.7-2.45
		c0-0.9-0.2-1.68-0.6-2.35c-0.4-0.67-0.97-1.19-1.71-1.57c-0.73-0.38-1.6-0.57-2.59-0.57c-0.95,0-1.83,0.17-2.65,0.52
		c-0.82,0.35-1.48,0.84-2,1.48c-0.51,0.64-0.79,1.4-0.82,2.29h-4.25c0.05-1.57,0.51-2.95,1.4-4.15c0.89-1.19,2.06-2.13,3.52-2.8
		s3.08-1.01,4.86-1.01c1.87,0,3.48,0.36,4.84,1.09c1.36,0.72,2.41,1.69,3.15,2.89c0.74,1.2,1.11,2.52,1.1,3.95
		c0.01,1.63-0.44,3.01-1.36,4.15c-0.91,1.14-2.13,1.9-3.64,2.29v0.23c1.93,0.29,3.43,1.06,4.5,2.3c1.07,1.24,1.59,2.78,1.58,4.62
		c0.01,1.6-0.43,3.04-1.33,4.3c-0.89,1.27-2.11,2.27-3.66,2.99C724.1,115.37,722.33,115.73,720.34,115.73z"/>
</g>
<g>
	<path d="M702.46,160.1v1.3h-16.2v-1.3h7.3v-1.36c-3.2-0.12-4.98-1-4.98-2.54c0-1.66,2.08-2.54,5.8-2.54c3.68,0,5.78,0.88,5.78,2.54
		c0,1.54-1.8,2.42-4.96,2.54v1.36H702.46z M701.54,152.96H687.1v-1.28h6.46v-1.72h1.64v1.72h6.34V152.96z M688.26,162.8h12.24v5.1
		h-12.24V162.8z M689.86,166.66h9.04v-2.62h-9.04V166.66z M694.38,157.6c2.58,0,4.04-0.5,4.04-1.4c0-0.88-1.46-1.38-4.04-1.38
		c-2.62,0-4.08,0.5-4.08,1.38C690.3,157.1,691.76,157.6,694.38,157.6z"/>
	<path d="M710.54,162.12c0.64-0.06,1.3-0.12,1.88-0.2l0.1,1.2c-2.78,0.52-6.54,0.6-8.88,0.6l-0.16-1.36c0.54,0,1.14,0,1.82-0.02
		v-8.54h-1.48v-1.32h8.2v1.32h-1.48V162.12z M706.8,162.3c0.74-0.02,1.48-0.04,2.24-0.08v-8.42h-2.24V162.3z M713.94,150.64h1.54
		v16.56h-1.54v-8.72h-2.44v-1.44h2.44V150.64z M718.98,150.22v17.92h-1.58v-17.92H718.98z"/>
	<path d="M730.84,157.84c0,3.82-1.9,6.26-4.56,6.26c-2.66,0-4.56-2.44-4.56-6.26c0-3.82,1.9-6.26,4.56-6.26
		C728.94,151.58,730.84,154.02,730.84,157.84z M723.28,157.84c0,2.92,1.24,4.8,3,4.8c1.74,0,2.98-1.88,2.98-4.8
		c0-2.9-1.24-4.78-2.98-4.78C724.52,153.06,723.28,154.94,723.28,157.84z M735.74,150.2v17.98h-1.64V150.2H735.74z"/>
	<path d="M744.86,155.68c0,3.04,2.16,6.14,4.8,7.26l-0.92,1.32c-2.08-0.96-3.84-3.02-4.7-5.48c-0.82,2.62-2.58,4.88-4.62,5.92
		l-0.96-1.32c2.58-1.22,4.76-4.6,4.76-7.7v-2.28h-4.16v-1.36h10.02v1.36h-4.22V155.68z M753.14,150.22v17.92h-1.64v-17.92H753.14z"
		/>
	<path d="M656.64,181.18c0,2.48-1.98,4.14-4.7,4.14c-2.7,0-4.66-1.66-4.66-4.14c0-2.44,1.96-4.12,4.66-4.12
		C654.66,177.06,656.64,178.74,656.64,181.18z M648.88,181.18c0,1.64,1.28,2.78,3.06,2.78c1.82,0,3.1-1.14,3.1-2.78
		c0-1.62-1.28-2.76-3.1-2.76C650.16,178.42,648.88,179.56,648.88,181.18z M651.64,186.72v2.2h8.32v-2.2h1.62v7.18h-11.56v-7.18
		H651.64z M651.64,192.58h8.32v-2.38h-8.32V192.58z M661.58,176.22v9.62h-1.64v-9.62H661.58z"/>
	<path d="M680.5,187.76h-7.34v6.38h-1.64v-6.38h-7.24v-1.34h16.2L680.5,187.76z M665.24,183.62c3.12-0.46,6.22-2.52,6.22-4.88v-0.1
		h-5.66v-1.32h13.1v1.32h-5.62v0.1c0,2.36,3.1,4.42,6.26,4.88l-0.64,1.3c-2.78-0.48-5.44-1.98-6.52-4.1
		c-1.1,2.12-3.74,3.62-6.52,4.1L665.24,183.62z"/>
	<path d="M696.2,186.44c-2.04-0.78-3.62-2.4-4.42-4.44c-0.76,2.18-2.38,3.92-4.48,4.8l-0.86-1.34c2.7-1.04,4.5-3.64,4.5-6.44v-1.82
		h1.64v1.82c0,2.7,1.82,5.14,4.48,6.12L696.2,186.44z M701.52,192.4v1.34h-12.08v-5.6h1.64v4.26H701.52z M700.98,189.36h-1.64V176.2
		h1.64V189.36z"/>
	<path d="M713.52,186.32c-2.06-0.64-3.7-1.98-4.52-3.72c-0.76,1.96-2.38,3.48-4.5,4.18l-0.8-1.26c2.64-0.9,4.44-3.08,4.44-5.5v-0.34
		h-3.98v-1.32h3.98v-2.24h1.64v2.24h3.96v1.32h-3.96v0.34c0,2.24,1.86,4.24,4.5,5.04L713.52,186.32z M718.5,190.82
		c0,2.1-2.28,3.3-6,3.3c-3.68,0-5.96-1.2-5.96-3.3c0-2.08,2.28-3.28,5.96-3.28C716.22,187.54,718.5,188.74,718.5,190.82z
		 M716.86,190.82c0-1.24-1.62-2-4.36-2c-2.7,0-4.32,0.76-4.32,2c0,1.26,1.62,2.02,4.32,2.02
		C715.24,192.84,716.86,192.08,716.86,190.82z M716.78,181.3v-5.1h1.66v10.88h-1.66v-4.42h-3.58v-1.36H716.78z"/>
	<path d="M727.12,179.08h4.42v1.32h-10.58v-1.32h4.52v-2.66h1.64V179.08z M730.7,186.02c0,2.44-1.82,4.12-4.38,4.12
		c-2.52,0-4.34-1.68-4.34-4.12c0-2.42,1.82-4.14,4.34-4.14C728.88,181.88,730.7,183.6,730.7,186.02z M729.14,186.02
		c0-1.62-1.18-2.78-2.82-2.78c-1.62,0-2.8,1.16-2.8,2.78c0,1.6,1.18,2.76,2.8,2.76C727.96,188.78,729.14,187.62,729.14,186.02z
		 M737.82,184.96h-2.94v9.18h-1.64v-17.92h1.64v7.36h2.94V184.96z"/>
	<path d="M747.92,178.14c0,5.18-2.38,9.74-8.34,12.66l-0.88-1.34c4.82-2.3,7.22-5.74,7.56-10h-6.74v-1.32H747.92z M753.18,176.2
		v17.94h-1.64V176.2H753.18z"/>
	<path d="M771.72,186.54c-3.74,0.68-8,0.74-11.06,0.74l-0.22-1.34c1.38,0,3-0.02,4.66-0.08v-1.8c-2.18-0.26-3.62-1.58-3.62-3.5
		c0-2.1,1.8-3.52,4.42-3.52c2.6,0,4.42,1.42,4.42,3.52c0,1.9-1.44,3.22-3.58,3.48v1.76c1.66-0.1,3.32-0.22,4.86-0.46L771.72,186.54z
		 M765.9,182.84c1.68,0,2.88-0.9,2.88-2.28c0-1.36-1.2-2.28-2.88-2.28c-1.72,0-2.9,0.92-2.9,2.28
		C763,181.94,764.18,182.84,765.9,182.84z M764.66,192.38H775v1.34h-11.98v-4.94h1.64V192.38z M777,182.28v1.36h-2.64v6.3h-1.64
		v-13.72h1.64v6.06H777z"/>
	<path d="M794.14,190.58v1.34h-16.3v-1.34h4.56v-3.4h-2.52v-5.54h10.64v-2.78h-10.68v-1.34h12.28v5.44H781.5v2.88h11.04v1.34h-2.8
		v3.4H794.14z M784.02,190.58h4.1v-3.4h-4.1V190.58z"/>
</g>
<g>
	<g>
		<circle class="st0" cx="280.5" cy="427" r="134"/>
	</g>
	<g>
		<path class="st1" d="M269.91,402.65v-3.55l12.57-19.86h2.8v5.23h-1.78l-8.99,14.23v0.23h17.23v3.72H269.91z M283.7,408.33v-6.76
			l0.03-1.62v-20.71h4.16v29.09H283.7z"/>
	</g>
	<g>
		<path d="M244.92,445.12c0,5.1-2.34,9.72-8.14,12.62l-0.9-1.28c4.58-2.3,7.04-5.74,7.42-9.98h-6.58v-1.36H244.92z M252.44,451.84
			h-2.88v9.3h-1.64V443.2h1.64v7.28h2.88V451.84z"/>
		<path d="M263.24,443.68h1.56v16.54h-1.56v-6.2H260v-1.34h3.24v-3.16h-2.96c-0.84,3.02-2.78,5.72-6.18,7.74l-0.96-1.16
			c3.86-2.3,5.78-5.52,6.06-9.28h-5.26v-1.34h6.88c0,0.92-0.08,1.82-0.24,2.72h2.66V443.68z M268.4,443.2v17.92h-1.56V443.2H268.4z"
			/>
		<path d="M275.58,452.76c-2.72,0-4.68-1.74-4.68-4.24c0-2.52,1.96-4.24,4.68-4.24c2.7,0,4.68,1.72,4.68,4.24
			C280.26,451.02,278.28,452.76,275.58,452.76z M275.58,451.38c1.78,0,3.08-1.18,3.08-2.86c0-1.7-1.3-2.86-3.08-2.86
			c-1.8,0-3.08,1.16-3.08,2.86C272.5,450.2,273.78,451.38,275.58,451.38z M272.82,454.7h11.66v6.44h-1.64v-5.1h-10.02V454.7z
			 M284.48,447.3v2.48h2.62v1.34h-2.62v2.74h-1.64v-10.64h1.64v2.72h2.62v1.36H284.48z"/>
		<path d="M302.72,453.78c-2.06-0.72-3.7-2.2-4.52-4.08c-0.76,2.04-2.42,3.66-4.54,4.42l-0.86-1.28c2.72-0.94,4.54-3.28,4.54-5.84
			v-0.98h-4.1v-1.32h9.84v1.32h-4.06V447c0,2.42,1.86,4.6,4.5,5.48L302.72,453.78z M307.82,459.4v1.34h-12.08v-5.64h1.64v4.3H307.82
			z M307.28,456.34h-1.64v-13.12h1.64V456.34z"/>
		<path d="M318.98,446.64h-9.12v-1.3h3.76v-2h1.62v2h3.74V446.64z M314.44,453.72c-2.26,0-3.84-1.2-3.84-3.08
			c0-1.84,1.58-3.06,3.84-3.06s3.82,1.22,3.82,3.06C318.26,452.52,316.7,453.72,314.44,453.72z M314.44,452.5
			c1.4,0,2.36-0.74,2.36-1.86c0-1.1-0.96-1.84-2.36-1.84c-1.42,0-2.36,0.74-2.36,1.84C312.08,451.76,313.02,452.5,314.44,452.5z
			 M325.2,458c0,2-2.26,3.12-6,3.12c-3.74,0-6-1.12-6-3.12c0-2.02,2.26-3.14,6-3.14C322.94,454.86,325.2,455.98,325.2,458z
			 M323.56,458c0-1.2-1.64-1.88-4.36-1.88c-2.74,0-4.38,0.68-4.38,1.88c0,1.18,1.64,1.86,4.38,1.86
			C321.92,459.86,323.56,459.18,323.56,458z M321.24,453.92h-1.56v-10.36h1.56v4.52h2.28v-4.88h1.58v11.36h-1.58v-5.14h-2.28V453.92
			z"/>
	</g>
</g>
<g>
	<circle class="st0" cx="427" cy="134" r="134"/>
</g>
<g>
	<path class="st1" d="M417.83,115.33v-3.18l9.84-10.2c1.05-1.11,1.92-2.08,2.61-2.92c0.69-0.84,1.2-1.64,1.54-2.39
		c0.34-0.76,0.51-1.56,0.51-2.41c0-0.97-0.23-1.8-0.68-2.51c-0.45-0.71-1.07-1.25-1.86-1.63c-0.79-0.38-1.67-0.58-2.66-0.58
		c-1.04,0-1.95,0.21-2.73,0.64s-1.37,1.03-1.79,1.8c-0.42,0.78-0.63,1.69-0.63,2.73h-4.19c0-1.77,0.41-3.32,1.22-4.65
		c0.81-1.33,1.93-2.36,3.35-3.09s3.04-1.1,4.84-1.1c1.83,0,3.44,0.36,4.84,1.09c1.4,0.72,2.49,1.71,3.27,2.95s1.18,2.65,1.18,4.21
		c0,1.08-0.2,2.14-0.6,3.17c-0.4,1.03-1.1,2.18-2.1,3.44s-2.38,2.8-4.15,4.6l-5.78,6.05v0.21h13.1v3.76H417.83z"/>
</g>
<g>
	<path d="M381.06,159.74v1.34h-16.2v-1.34h7.3v-1.88c-3.38-0.18-5.5-1.46-5.5-3.54c0-2.24,2.46-3.58,6.32-3.58
		c3.82,0,6.28,1.34,6.28,3.58c0,2.06-2.12,3.36-5.46,3.54v1.88H381.06z M368.58,166.4h10.7v1.34h-12.34v-5.18h1.64V166.4z
		 M372.98,156.56c2.8,0,4.6-0.82,4.6-2.24c0-1.42-1.8-2.26-4.6-2.26c-2.84,0-4.64,0.84-4.64,2.26
		C368.34,155.74,370.14,156.56,372.98,156.56z"/>
	<path d="M384.6,162.46c3.26,0,5.58-0.12,8.26-0.64l0.18,1.36c-2.8,0.5-5.2,0.64-8.62,0.64H383v-6.86h6.44v-3.76h-6.5v-1.34h8.12
		v6.44h-6.46V162.46z M399.02,158.7h-2.94v9.46h-1.64v-17.98h1.64v7.14h2.94V158.7z"/>
	<path d="M404.74,160.3c-2.66,0-4.66-1.84-4.66-4.44c0-2.58,2-4.4,4.66-4.4c2.68,0,4.7,1.82,4.7,4.4
		C409.44,158.46,407.42,160.3,404.74,160.3z M404.74,158.88c1.78,0,3.1-1.24,3.1-3.02c0-1.74-1.32-2.98-3.1-2.98
		c-1.74,0-3.06,1.24-3.06,2.98C401.68,157.64,403,158.88,404.74,158.88z M414.92,166.4v1.34h-12.08v-5.76h1.64v4.42H414.92z
		 M414.38,163.32h-1.64v-13.1h1.64V163.32z"/>
	<path d="M431.84,159.64c-2.06-0.66-3.72-2.1-4.54-3.96c-0.78,1.98-2.44,3.54-4.58,4.28l-0.84-1.3c2.72-0.86,4.56-3.1,4.56-5.56
		v-0.4h-4.1v-1.34h9.84v1.34h-4.06v0.4c0,2.36,1.88,4.46,4.52,5.28L431.84,159.64z M434.76,160.78h1.62v7.12h-11.56v-7.12h1.62v2.18
		h8.32V160.78z M434.76,164.24h-8.32v2.32h8.32V164.24z M436.38,150.2v9.72h-1.64v-9.72H436.38z"/>
	<path d="M455.26,160.26h-7.28v7.88h-1.64v-7.88h-7.3v-1.34h4.62c0.74-2.76,0.88-4.82,0.9-6.14h-4.2v-1.34h5.8v0.6
		c0,1.12,0,3.5-0.8,6.88h5.78c0.58-2.76,0.66-4.8,0.68-6.14h-4.34v-1.34h5.96v0.8c0,1.28,0,3.5-0.66,6.68h2.48V160.26z"/>
	<path d="M465.74,151.96v11.66h-8.24v-11.66H465.74z M459.1,153.28v9.04h5.04v-9.04H459.1z M471.14,150.2v17.98h-1.64V150.2H471.14z
		"/>
	<path d="M483.32,152.14c0,5.18-2.38,9.74-8.34,12.66l-0.88-1.34c4.82-2.3,7.22-5.74,7.56-10h-6.74v-1.32H483.32z M488.58,150.2
		v17.94h-1.64V150.2H488.58z"/>
	<path d="M369.58,184.7h-8.38v-7.34h8.38V184.7z M370.12,188.98c0.02,1.72,2.82,3.46,5.9,3.84l-0.56,1.26
		c-2.7-0.38-5.1-1.62-6.16-3.28c-1.08,1.7-3.56,2.9-6.26,3.28l-0.54-1.26c3.06-0.36,5.92-2.06,5.94-3.84h-5.24v-1.26h5.26v-1.74
		h1.66v1.74h5.26v1.26H370.12z M367.98,178.66h-5.18v4.72h5.18V178.66z M374.96,186.5h-1.64v-10.3h1.64V186.5z"/>
	<path d="M390.94,186.38c-2.26,0.44-4.12,0.54-6.7,0.54h-1.16v-5.34h4.72v-2.62h-4.76v-1.28h6.36v5.14h-4.72v2.78
		c2.3-0.02,4.06-0.1,6.08-0.52L390.94,186.38z M397.92,192.4v1.34H385.7v-5.4h1.64v4.06H397.92z M392.3,182.52h-2.2v-1.34h2.2v-4.64
		h1.56v12.68h-1.56V182.52z M397.4,189.68h-1.58v-13.46h1.58V189.68z"/>
	<path d="M410.06,184.48c-2.46,0.4-4.5,0.46-8.22,0.46h-1.36v-7.84h8.2v1.3h-6.56v1.92h6.24v1.26h-6.24v2.06
		c3.5,0,5.42-0.08,7.76-0.46L410.06,184.48z M403.84,192.66h10.4v1.28h-12v-4.5h9.72v-1.72h-9.78v-1.28h11.4v4.22h-9.74V192.66z
		 M416.24,180.12v1.34h-2.66v4.12h-1.64v-9.36h1.64v3.9H416.24z"/>
	<path d="M426.92,181.26c0,3.12,1.34,6.24,3.82,7.64l-1,1.2c-1.74-1.04-2.98-2.96-3.6-5.24c-0.62,2.46-1.92,4.56-3.7,5.68l-1-1.22
		c2.5-1.5,3.9-4.76,3.9-8.06v-1.62h-3.4v-1.34h8.18v1.34h-3.2V181.26z M431.72,176.6h1.56v16.6h-1.56v-9.22h-2.96v-1.34h2.96V176.6z
		 M436.9,176.18v17.94h-1.58v-17.94H436.9z"/>
	<path d="M448,186.2v2.1h5.3v5.6h-12.24v-5.6h5.3v-2.1h-7.3v-1.32h16.22v1.32H448z M443.28,178.1h-2.7v-1.32h13.16v1.32h-2.72v3.76
		h2.64v1.32h-13.02v-1.32h2.64V178.1z M451.7,189.6h-9.04v2.98h9.04V189.6z M449.38,178.1h-4.46v3.76h4.46V178.1z"/>
	<path d="M470.68,186.64c-1.98-0.78-3.52-2.32-4.28-4.26c-0.76,2.14-2.36,3.84-4.46,4.68l-0.86-1.3c2.68-0.98,4.48-3.52,4.48-6.26
		v-2.22h1.64v2.28c0,2.5,1.76,4.86,4.34,5.82L470.68,186.64z M476.26,192.4v1.34H464.3v-5.6h1.64v4.26H476.26z M474.18,181.78h-3.92
		v-1.36h3.92v-4.2h1.66v13.4h-1.66V181.78z"/>
	<path d="M487.02,185.64c-2.06,0.42-3.76,0.5-6.64,0.5h-1.14v-8.62h6.92v1.32h-5.34v2.26h5.14v1.26h-5.14v2.44
		c2.56,0,4.16-0.1,6.04-0.48L487.02,185.64z M481.54,188.02h12.06v6.12h-1.64v-4.8h-10.42V188.02z M493.6,176.22v10.86h-1.58v-4.86
		h-2.4v4.74h-1.56v-10.42h1.56v4.34h2.4v-4.66H493.6z"/>
</g>
<path class="st1" d="M330.49,139.69h-99.99c-0.41,0-0.75-0.34-0.75-0.75s0.34-0.75,0.75-0.75h97.67l-11.79-8.51
	c-0.34-0.24-0.41-0.71-0.17-1.05c0.24-0.34,0.71-0.41,1.05-0.17l13.67,9.87c0.26,0.19,0.37,0.53,0.27,0.84
	C331.11,139.48,330.82,139.69,330.49,139.69z"/>
<path class="st1" d="M623.49,139.69h-99.99c-0.41,0-0.75-0.34-0.75-0.75s0.34-0.75,0.75-0.75h97.67l-11.79-8.51
	c-0.34-0.24-0.41-0.71-0.17-1.05c0.24-0.34,0.71-0.41,1.05-0.17l13.67,9.87c0.26,0.19,0.37,0.53,0.27,0.84
	C624.11,139.48,623.82,139.69,623.49,139.69z"/>
<path class="st1" d="M409.68,343.38l47.7-47.7c0.29-0.29,0.29-0.77,0-1.06s-0.77-0.29-1.06,0l-46.06,46.06l2.32-14.36
	c0.07-0.41-0.21-0.79-0.62-0.86c-0.41-0.07-0.8,0.21-0.86,0.62l-2.69,16.65c-0.05,0.32,0.11,0.64,0.4,0.79
	C409.1,343.67,409.45,343.61,409.68,343.38z"/>
<path class="st1" d="M476.99,432.69h-99.98c-0.41,0-0.75-0.34-0.75-0.75s0.34-0.75,0.75-0.75h97.66l-11.79-8.51
	c-0.33-0.24-0.41-0.71-0.17-1.05c0.24-0.33,0.71-0.41,1.05-0.17l13.67,9.87c0.26,0.19,0.37,0.53,0.27,0.84
	C477.61,432.48,477.32,432.69,476.99,432.69z"/>
</svg>
