<?xml version="1.0" encoding="utf-8"?>
<!-- Generator: Adobe Illustrator 22.0.1, SVG Export Plug-In . SVG Version: 6.00 Build 0)  -->
<svg version="1.1" id="레이어_1" xmlns="http://www.w3.org/2000/svg" xmlns:xlink="http://www.w3.org/1999/xlink" x="0px"
	 y="0px" viewBox="0 0 17 18" style="enable-background:new 0 0 17 18;" xml:space="preserve">
<style type="text/css">
	.st0{fill:#FFFFFF;}
</style>
<g>
	<g>
		<path class="st0" d="M12.9,3.7c-0.5,0-1,0.5-1,1s0.4,1,1,1c0.5,0,1-0.5,1-1C13.9,4.1,13.5,3.7,12.9,3.7 M8.6,5
			C6.2,5,4.4,6.8,4.4,9.1s1.8,4.1,4.1,4.1s4.1-1.8,4.1-4.1S10.8,5,8.6,5 M8.6,11.8c-1.5,0-2.7-1.2-2.7-2.7s1.2-2.7,2.7-2.7
			s2.7,1.2,2.7,2.7C11.2,10.6,10,11.8,8.6,11.8"/>
	</g>
	<path class="st0" d="M11.9,0.6H5.1c-2.8,0-5,2.3-5,5v6.7c0,2.8,2.3,5.1,5,5.1h6.7c2.8,0,5-2.3,5-5.1V5.6
		C16.9,2.9,14.6,0.6,11.9,0.6z M15.3,12.4c0,1.9-1.6,3.5-3.5,3.5H5.1c-1.9,0-3.5-1.6-3.5-3.5V5.6c0-1.9,1.6-3.5,3.5-3.5h6.7
		c1.9,0,3.5,1.6,3.5,3.5V12.4z"/>
</g>
</svg>
