<?xml version="1.0" encoding="utf-8"?>
<!-- Generator: Adobe Illustrator 22.0.1, SVG Export Plug-In . SVG Version: 6.00 Build 0)  -->
<svg version="1.1" id="레이어_1" xmlns="http://www.w3.org/2000/svg" xmlns:xlink="http://www.w3.org/1999/xlink" x="0px"
	 y="0px" viewBox="0 0 196 30" style="enable-background:new 0 0 196 30;" xml:space="preserve">
<style type="text/css">
	.st0{fill:#FFFFFF;}
</style>
<g>
	<g>
		<path class="st0" d="M18.2,7.7c-0.4-1.4-0.9-2.1-1.9-2.6c-1.1-0.6-2.3-0.8-4-0.8c-3.4,0-5.4,1-5.4,2.8c0,1.3,0.9,1.9,3.3,2.1
			l5.6,0.6c3,0.3,4.6,0.7,6.1,1.4c2.1,1,3.4,3.2,3.4,5.6c0,2.7-1.6,5.1-4.2,6.3c-2.2,1.1-4.8,1.5-8.5,1.5c-4.7,0-8-0.9-10.1-2.7
			C0.8,20.5,0.2,19,0,16h6c0.2,1.5,0.6,2.3,1.5,3c1.3,1,2.9,1.4,5.2,1.4c3.8,0,5.9-1.1,5.9-3c0-1.5-1.1-2.3-3.8-2.6l-6.5-0.7
			c-5-0.5-7.8-2.8-7.8-6.4C0.7,2.9,5.1,0,12.2,0c3.6,0,6.9,0.8,9,2.2c1.8,1.2,2.6,2.7,3,5.4H18.2z"/>
		<path class="st0" d="M35.5,6.8h4v3.9h-4v7.1c0,1.5,0.5,1.9,2.3,1.9h1.6v4.1H36c-4.9,0-6-1.1-5.9-6.1v-7h-2.4V6.8h2.4V2h5.4V6.8z"
			/>
		<path class="st0" d="M43.4,12.3c0.3-1.9,0.8-3,1.8-3.9c1.6-1.4,4.6-2.2,8.2-2.2c3.4,0,6.2,0.8,7.7,2.1c1,0.9,1.5,2.4,1.5,4.4v9.2
			c0,1.2,0,1.3,0.4,2h-5.4c-0.2-0.7-0.3-0.9-0.3-2c-2,2-4.1,2.7-7.4,2.7c-2.7,0-4.7-0.6-6-1.8c-1.1-1-1.7-2.3-1.7-3.8
			c0-1.8,0.9-3.2,2.5-4.1c1.2-0.7,2.3-0.9,6.9-1.3c4.9-0.4,5.7-0.7,5.7-1.8c0-1.3-1.5-2.1-4.1-2.1c-2.8,0-3.9,0.8-4.1,2.8H43.4z
			 M57.3,15.6c-1.6,0.6-2.2,0.7-4.7,0.9c-2.3,0.2-3,0.3-3.7,0.6c-0.6,0.3-1,0.9-1,1.6c0,1.3,1.4,2.3,3.2,2.3c1.5,0,3.2-0.6,4.5-1.5
			c1.1-0.8,1.7-1.7,1.7-2.8V15.6z"/>
		<path class="st0" d="M86,6.8l-7.7,16.3c-3,6.6-3.3,6.8-8.1,6.9h-3.1v-4.7h3.2c1.3,0,2-0.5,2-1.5c0-0.4-0.1-0.8-0.4-1.4L64.4,6.8
			h6.1l3.2,7.4c0.8,1.8,0.9,2.1,1.7,4.4c0.6-1.8,1.3-3.5,1.7-4.4l3.1-7.4H86z"/>
		<path class="st0" d="M108.1,23.8h-5.4v-1.6c-1.7,1.5-3.6,2.2-5.8,2.2c-5.2,0-9.1-3.9-9.1-9.1c0-5.2,3.9-9.1,9.1-9.1
			c2.3,0,4.1,0.7,5.8,2.2V0.8h5.4V23.8z M93.1,15.3c0,2.9,2.2,5.2,5,5.2c2.7,0,5-2.3,5-5.1c0-3-2.2-5.3-4.9-5.3
			C95.3,10.1,93.1,12.4,93.1,15.3"/>
		<path class="st0" d="M156.8,23.8h-5.4v-1.6c-1.7,1.5-3.6,2.2-5.8,2.2c-5.2,0-9.1-3.9-9.1-9.1c0-5.2,3.9-9.1,9.1-9.1
			c2.3,0,4.1,0.7,5.8,2.2V0.8h5.4V23.8z M141.9,15.3c0,2.9,2.2,5.2,5,5.2c2.7,0,5-2.3,5-5.1c0-3-2.2-5.3-4.9-5.3
			C144.1,10.1,141.9,12.4,141.9,15.3"/>
		<path class="st0" d="M174.3,19.6c-1,1.4-2.2,2.6-3.4,3.3c-1.2,0.8-2.7,1.2-4.3,1.2c-1,0-1.8-0.1-2.6-0.4c-0.8-0.3-1.4-0.7-2-1.3
			c-0.6-0.6-1-1.2-1.3-2c-0.3-0.8-0.5-1.7-0.5-2.7c0-1.1,0.1-2.1,0.4-3.1c0.3-1,0.6-1.9,1.1-2.7c0.5-0.9,1-1.6,1.7-2.3
			c0.7-0.7,1.4-1.3,2.2-1.8c0.8-0.5,1.7-0.9,2.7-1.2c1-0.3,1.9-0.4,3-0.4c0.8,0,1.5,0.1,2.1,0.3c0.6,0.2,1.1,0.4,1.5,0.7
			c0.4,0.3,0.8,0.7,1.1,1.2c0.3,0.5,0.6,1,0.8,1.5h0.1c0.3-0.5,0.6-1,0.9-1.6c0.3-0.6,0.6-1.1,0.9-1.7h6c-1.1,1.6-2.1,3.1-3,4.3
			c-0.4,0.5-0.7,1.1-1.1,1.6c-0.3,0.5-0.7,1-1,1.4c-0.3,0.5-0.6,0.9-0.9,1.4c0.1,1.5,0.3,2.6,0.6,3.3c0.3,0.8,0.8,1.1,1.5,1.1
			c0.2,0,0.5,0,0.8-0.1c0.3,0,0.5-0.1,0.8-0.2c-0.2,0.7-0.3,1.3-0.5,2c-0.2,0.7-0.3,1.4-0.5,2c-0.3,0.1-0.7,0.2-1.2,0.3
			c-0.5,0.1-1.1,0.2-1.8,0.2c-1.3,0-2.2-0.4-2.9-1.1C174.9,22.2,174.5,21.1,174.3,19.6L174.3,19.6z M173.7,13.2
			c-0.1-0.6-0.2-1.1-0.4-1.6c-0.2-0.5-0.4-0.8-0.7-1.1c-0.3-0.3-0.7-0.4-1.2-0.4c-0.7,0-1.4,0.2-2,0.7c-0.6,0.4-1.2,1-1.7,1.7
			c-0.5,0.7-0.8,1.5-1.1,2.3c-0.3,0.9-0.4,1.7-0.4,2.6c0,0.4,0,0.7,0.1,1c0.1,0.3,0.2,0.6,0.4,0.8c0.2,0.2,0.4,0.4,0.7,0.5
			c0.3,0.1,0.6,0.2,0.9,0.2c0.9,0,1.8-0.3,2.6-1c0.9-0.7,1.6-1.6,2.3-2.8l0.6-1C173.9,14.4,173.8,13.8,173.7,13.2"/>
		<path class="st0" d="M125.3,19.6c-1,1.4-2.2,2.6-3.4,3.3c-1.2,0.8-2.7,1.2-4.3,1.2c-1,0-1.8-0.1-2.6-0.4c-0.8-0.3-1.4-0.7-2-1.3
			c-0.6-0.6-1-1.2-1.3-2c-0.3-0.8-0.5-1.7-0.5-2.7c0-1.1,0.1-2.1,0.4-3.1c0.3-1,0.6-1.9,1.1-2.7c0.5-0.9,1-1.6,1.7-2.3
			c0.7-0.7,1.4-1.3,2.2-1.8c0.8-0.5,1.7-0.9,2.7-1.2c1-0.3,1.9-0.4,3-0.4c0.8,0,1.5,0.1,2.1,0.3c0.6,0.2,1.1,0.4,1.5,0.7
			c0.4,0.3,0.8,0.7,1.1,1.2c0.3,0.5,0.6,1,0.8,1.5h0.1c0.3-0.5,0.6-1,0.9-1.6c0.3-0.6,0.6-1.1,0.9-1.7h6c-1.1,1.6-2.1,3.1-3,4.3
			c-0.4,0.5-0.7,1.1-1.1,1.6c-0.3,0.5-0.7,1-1,1.4c-0.3,0.5-0.6,0.9-0.9,1.4c0.1,1.5,0.3,2.6,0.6,3.3c0.3,0.8,0.8,1.1,1.5,1.1
			c0.2,0,0.5,0,0.8-0.1c0.3,0,0.5-0.1,0.8-0.2c-0.2,0.7-0.3,1.3-0.5,2c-0.2,0.7-0.3,1.4-0.5,2c-0.3,0.1-0.7,0.2-1.2,0.3
			c-0.5,0.1-1.1,0.2-1.8,0.2c-1.3,0-2.2-0.4-2.9-1.1C125.9,22.2,125.5,21.1,125.3,19.6L125.3,19.6z M124.7,13.2
			c-0.1-0.6-0.2-1.1-0.4-1.6c-0.2-0.5-0.4-0.8-0.7-1.1c-0.3-0.3-0.7-0.4-1.2-0.4c-0.7,0-1.4,0.2-2,0.7c-0.6,0.4-1.2,1-1.7,1.7
			c-0.5,0.7-0.8,1.5-1.1,2.3c-0.3,0.9-0.4,1.7-0.4,2.6c0,0.4,0,0.7,0.1,1c0.1,0.3,0.2,0.6,0.4,0.8c0.2,0.2,0.4,0.4,0.7,0.5
			c0.3,0.1,0.6,0.2,0.9,0.2c0.9,0,1.8-0.3,2.6-1c0.9-0.7,1.6-1.6,2.3-2.8l0.6-1C124.8,14.4,124.8,13.8,124.7,13.2"/>
	</g>
	<g>
		<path class="st0" d="M190.2,7.5h-0.9V2.1h2.1c1.3,0,2,0.5,2,1.6c0,1-0.6,1.4-1.4,1.5l1.5,2.4h-1L191,5.2h-0.8V7.5z M191.2,4.5
			c0.7,0,1.3-0.1,1.3-0.8c0-0.7-0.7-0.7-1.2-0.7h-1.1v1.6H191.2z"/>
		<path class="st0" d="M191.2,0.9c2.2,0,4,1.8,4,4s-1.8,4-4,4c-2.2,0-4-1.8-4-4S189,0.9,191.2,0.9 M191.2,0c-2.7,0-4.8,2.2-4.8,4.8
			s2.2,4.8,4.8,4.8s4.8-2.2,4.8-4.8S193.8,0,191.2,0L191.2,0z"/>
	</g>
</g>
</svg>
