<?xml version="1.0" encoding="utf-8"?>
<!-- Generator: Adobe Illustrator 23.0.0, SVG Export Plug-In . SVG Version: 6.00 Build 0)  -->
<svg version="1.1" id="레이어_1" xmlns="http://www.w3.org/2000/svg" xmlns:xlink="http://www.w3.org/1999/xlink" x="0px"
	 y="0px" viewBox="0 0 25 22" style="enable-background:new 0 0 25 22;" xml:space="preserve">
<style type="text/css">
	.st0{fill:#CBCBCB;}
</style>
<g>
	<path class="st0" d="M17.96,1.65c1.44,0,2.77,0.58,3.73,1.62c0.98,1.07,1.52,2.54,1.52,4.16c0,1.71-0.64,3.24-2.07,4.97
		c-1.41,1.7-3.51,3.49-5.94,5.56c-0.82,0.7-1.74,1.48-2.7,2.32c-0.96-0.84-1.88-1.62-2.7-2.32c-2.43-2.07-4.53-3.86-5.94-5.56
		c-1.43-1.73-2.07-3.26-2.07-4.97c0-1.62,0.54-3.09,1.53-4.16C4.27,2.22,5.6,1.65,7.04,1.65c1.07,0,2.01,0.33,2.88,1
		c0.45,0.35,0.87,0.79,1.24,1.3l1.34,1.85l1.34-1.85c0.37-0.51,0.79-0.95,1.24-1.3C15.95,1.97,16.89,1.65,17.96,1.65 M17.96,0
		c-1.43,0-2.73,0.45-3.89,1.34c-0.58,0.45-1.11,1-1.57,1.64c-0.46-0.64-0.99-1.19-1.57-1.64C9.78,0.45,8.47,0,7.04,0
		C5.13,0,3.38,0.76,2.1,2.15C0.83,3.53,0.14,5.4,0.14,7.43c0,2.09,0.78,4.01,2.45,6.02c1.5,1.81,3.65,3.64,6.14,5.76l0,0
		c0.85,0.72,1.81,1.54,2.81,2.42c0.26,0.23,0.6,0.36,0.96,0.36c0.35,0,0.69-0.13,0.96-0.36c1-0.88,1.97-1.7,2.82-2.42
		c2.49-2.12,4.64-3.96,6.14-5.76c1.67-2.02,2.45-3.93,2.45-6.02c0-2.03-0.7-3.91-1.96-5.28C21.62,0.76,19.87,0,17.96,0L17.96,0z"/>
</g>
</svg>
