<?xml version="1.0" encoding="utf-8"?>
<!-- Generator: Adobe Illustrator 23.0.0, SVG Export Plug-In . SVG Version: 6.00 Build 0)  -->
<svg version="1.1" id="레이어_1" xmlns="http://www.w3.org/2000/svg" xmlns:xlink="http://www.w3.org/1999/xlink" x="0px"
	 y="0px" viewBox="0 0 25 22" style="enable-background:new 0 0 25 22;" xml:space="preserve">
<style type="text/css">
	.st0{fill:#0008CB;}
</style>
<g>
	<g>
		<path class="st0" d="M17.96,0c-1.43,0-2.73,0.45-3.89,1.34c-0.58,0.45-1.11,1-1.57,1.64c-0.46-0.64-0.99-1.19-1.57-1.64
			C9.78,0.45,8.47,0,7.04,0C5.13,0,3.38,0.76,2.1,2.15C0.83,3.53,0.14,5.4,0.14,7.43c0,2.09,0.78,4.01,2.45,6.02
			c1.5,1.81,3.65,3.64,6.14,5.76l0,0c0.85,0.72,1.81,1.54,2.81,2.42c0.26,0.23,0.6,0.36,0.96,0.36c0.35,0,0.69-0.13,0.96-0.36
			c1-0.88,1.97-1.7,2.82-2.42c2.49-2.12,4.64-3.96,6.14-5.76c1.67-2.02,2.45-3.93,2.45-6.02c0-2.03-0.7-3.91-1.96-5.28
			C21.62,0.76,19.87,0,17.96,0L17.96,0z"/>
	</g>
</g>
</svg>
